<svg width="61" height="10" viewBox="0 0 61 10" fill="none" xmlns="http://www.w3.org/2000/svg">
<g clip-path="url(#clip0_61_116)">
<path fill-rule="evenodd" clip-rule="evenodd" d="M17.9359 2.48914H15.0293C14.94 2.48914 14.8507 2.52911 14.7912 2.58908L14.1364 3.2487C14.0769 3.30866 14.0372 3.39861 14.0372 3.48856V7.44626C14.0372 7.46625 14.0571 7.47624 14.067 7.47624H14.8507C14.8705 7.47624 14.8805 7.45626 14.8805 7.44626V5.58734C14.8805 5.4874 14.9598 5.41744 15.0491 5.41744H17.5788C17.5986 5.41744 17.6085 5.39745 17.6085 5.38746V4.59791C17.6085 4.57792 17.5887 4.56793 17.5788 4.56793H15.0491C14.9499 4.56793 14.8805 4.48798 14.8805 4.39803V3.53853C14.8805 3.43859 14.9598 3.36863 15.0491 3.36863H17.926C17.9458 3.36863 17.9558 3.34864 17.9558 3.33864V2.5491C17.9657 2.49913 17.9558 2.48914 17.9359 2.48914" fill="white"/>
<path fill-rule="evenodd" clip-rule="evenodd" d="M26.2293 4.72784C26.2293 4.82778 26.1499 4.89774 26.0606 4.89774H23.8385C23.7393 4.89774 23.6698 4.81779 23.6698 4.72784V3.51854C23.6698 3.4186 23.7492 3.34864 23.8385 3.34864H26.0606C26.1598 3.34864 26.2293 3.42859 26.2293 3.51854V4.72784ZM26.9832 3.2487L26.3285 2.58908C26.2689 2.52911 26.1797 2.48914 26.0904 2.48914H23.8087C23.7194 2.48914 23.6301 2.52911 23.5706 2.58908L22.9159 3.2487C22.8564 3.30866 22.8167 3.39861 22.8167 3.48856V7.44626C22.8167 7.46625 22.8365 7.47624 22.8464 7.47624H23.6301C23.65 7.47624 23.6599 7.45626 23.6599 7.44626V5.92714C23.6599 5.8272 23.7393 5.75724 23.8286 5.75724H26.0507C26.1499 5.75724 26.2193 5.83719 26.2193 5.92714V7.44626C26.2193 7.46625 26.2392 7.47624 26.2491 7.47624H27.0328C27.0527 7.47624 27.0626 7.45626 27.0626 7.44626V3.48856C27.0824 3.39861 27.0427 3.30866 26.9832 3.2487Z" fill="white"/>
<path fill-rule="evenodd" clip-rule="evenodd" d="M22.0628 7.47624H19.672C19.5827 7.47624 19.4934 7.43627 19.4339 7.3763L18.7791 6.71668C18.7196 6.65672 18.6799 6.56677 18.6799 6.47682V2.51912C18.6799 2.49913 18.6998 2.48914 18.7097 2.48914H19.4934C19.5132 2.48914 19.5232 2.50912 19.5232 2.51912V6.44684C19.5232 6.54678 19.6025 6.61674 19.6918 6.61674H22.0528C22.0727 6.61674 22.0826 6.63673 22.0826 6.64673V7.43627C22.0925 7.46625 22.0826 7.47624 22.0628 7.47624" fill="white"/>
<path fill-rule="evenodd" clip-rule="evenodd" d="M31.7252 5.30749L31.0704 4.64787C31.0109 4.5879 30.9216 4.54793 30.8323 4.54793H28.9276C28.8284 4.54793 28.759 4.46797 28.759 4.37803V3.51852C28.759 3.41858 28.8384 3.34862 28.9276 3.34862H31.626C31.6458 3.34862 31.6557 3.32863 31.6557 3.31864V2.5291C31.6557 2.50911 31.6359 2.49911 31.626 2.49911H28.8979C28.8086 2.49911 28.7193 2.53909 28.6598 2.59906L28.0051 3.25867C27.9455 3.31864 27.9059 3.40859 27.9059 3.49854V4.418C27.9059 4.50795 27.9455 4.5979 28.0051 4.65786L28.6598 5.31748C28.7193 5.37745 28.8086 5.41742 28.8979 5.41742H30.8026C30.9018 5.41742 30.9712 5.49738 30.9712 5.58732V6.44683C30.9712 6.54677 30.8919 6.61673 30.8026 6.61673H28.1043C28.0844 6.61673 28.0745 6.63672 28.0745 6.64671V7.43625C28.0745 7.45624 28.0943 7.46623 28.1043 7.46623H30.8323C30.9216 7.46623 31.0109 7.42626 31.0704 7.36629L31.7252 6.70668C31.7847 6.64671 31.8244 6.55676 31.8244 6.46681V5.54735C31.8244 5.46739 31.7946 5.37745 31.7252 5.30749" fill="white"/>
<path fill-rule="evenodd" clip-rule="evenodd" d="M41.5661 5.30749L40.9113 4.64787C40.8518 4.5879 40.7625 4.54793 40.6733 4.54793H38.7686C38.6793 4.54793 38.5999 4.46797 38.5999 4.37803V3.51852C38.5999 3.41858 38.6793 3.34862 38.7686 3.34862H41.4669C41.4867 3.34862 41.4966 3.32863 41.4966 3.31864V2.5291C41.4966 2.50911 41.4768 2.49911 41.4669 2.49911H38.7388C38.6495 2.49911 38.5602 2.53909 38.5007 2.59906L37.846 3.25867C37.7864 3.31864 37.7468 3.40859 37.7468 3.49854V4.418C37.7468 4.50795 37.7864 4.5979 37.846 4.65786L38.5007 5.31748C38.5602 5.37745 38.6495 5.41742 38.7388 5.41742H40.6435C40.7427 5.41742 40.8121 5.49738 40.8121 5.58732V6.44683C40.8121 6.54677 40.7328 6.61673 40.6435 6.61673H37.9452C37.9253 6.61673 37.9154 6.63672 37.9154 6.64671V7.43625C37.9154 7.45624 37.9353 7.46623 37.9452 7.46623H40.6733C40.7625 7.46623 40.8518 7.42626 40.9113 7.36629L41.5661 6.70668C41.6256 6.64671 41.6653 6.55676 41.6653 6.46681V5.54735C41.6653 5.46739 41.6256 5.37745 41.5661 5.30749" fill="white"/>
<path fill-rule="evenodd" clip-rule="evenodd" d="M43.3319 3.51852C43.3319 3.41858 43.4113 3.34862 43.5006 3.34862H46.0302C46.0501 3.34862 46.06 3.32863 46.06 3.31864V2.5291C46.06 2.50911 46.0402 2.49911 46.0302 2.49911H43.4708C43.3815 2.49911 43.2922 2.53909 43.2327 2.59906L42.578 3.25867C42.5184 3.31864 42.4788 3.40859 42.4788 3.49854V6.4868C42.4788 6.57675 42.5184 6.6667 42.578 6.72666L43.2327 7.38628C43.2922 7.44625 43.3815 7.48622 43.4708 7.48622H46.0302C46.0501 7.48622 46.06 7.46624 46.06 7.45624V6.6667C46.06 6.64671 46.0402 6.63672 46.0302 6.63672H43.5006C43.4013 6.63672 43.3319 6.55676 43.3319 6.46681V3.51852Z" fill="white"/>
<path fill-rule="evenodd" clip-rule="evenodd" d="M50.3059 6.44684C50.3059 6.54678 50.2265 6.61674 50.1373 6.61674H47.9151C47.8159 6.61674 47.7465 6.53679 47.7465 6.44684V3.51854C47.7465 3.4186 47.8258 3.34864 47.9151 3.34864H50.1373C50.2365 3.34864 50.3059 3.42859 50.3059 3.51854V6.44684ZM51.0598 3.2487L50.4051 2.58908C50.3456 2.52911 50.2563 2.48914 50.167 2.48914H47.8853C47.7961 2.48914 47.7068 2.52911 47.6473 2.58908L46.9925 3.2487C46.933 3.30866 46.8933 3.39861 46.8933 3.48856V6.47682C46.8933 6.56677 46.933 6.65672 46.9925 6.71668L47.6473 7.3763C47.7068 7.43627 47.7961 7.47624 47.8853 7.47624H50.167C50.2563 7.47624 50.3456 7.43627 50.4051 7.3763L51.0598 6.71668C51.1194 6.65672 51.159 6.56677 51.159 6.47682V3.48856C51.159 3.39861 51.1293 3.30866 51.0598 3.2487Z" fill="white"/>
<path fill-rule="evenodd" clip-rule="evenodd" d="M36.8837 2.48914H36.1C36.0802 2.48914 36.0703 2.50912 36.0703 2.51912V4.37804C36.0703 4.47798 35.9909 4.54794 35.9016 4.54794H33.6795C33.5803 4.54794 33.5108 4.46799 33.5108 4.37804V2.51912C33.5108 2.49913 33.491 2.48914 33.4811 2.48914H32.6974C32.6775 2.48914 32.6676 2.50912 32.6676 2.51912V7.44626C32.6676 7.46625 32.6874 7.47624 32.6974 7.47624H33.4811C33.5009 7.47624 33.5108 7.45626 33.5108 7.44626V5.58734C33.5108 5.4874 33.5902 5.41744 33.6795 5.41744H35.9016C36.0008 5.41744 36.0703 5.49739 36.0703 5.58734V7.44626C36.0703 7.46625 36.0901 7.47624 36.1 7.47624H36.8837C36.9036 7.47624 36.9135 7.45626 36.9135 7.44626V2.51912C36.9135 2.49913 36.9036 2.48914 36.8837 2.48914" fill="white"/>
<path fill-rule="evenodd" clip-rule="evenodd" d="M55.395 4.37804C55.395 4.47798 55.3156 4.54794 55.2264 4.54794H53.0042C52.9149 4.54794 52.8356 4.46799 52.8356 4.37804V3.51854C52.8356 3.42859 52.9149 3.34864 53.0042 3.34864H55.2264C55.3256 3.34864 55.395 3.42859 55.395 3.51854V4.37804ZM56.2482 3.48856C56.2482 3.39861 56.2085 3.30866 56.149 3.2487L55.5041 2.58908C55.4446 2.52911 55.3553 2.48914 55.266 2.48914H52.0122C51.9923 2.48914 51.9824 2.50912 51.9824 2.51912V7.44626C51.9824 7.46625 52.0023 7.47624 52.0122 7.47624H52.7959C52.8157 7.47624 52.8256 7.45626 52.8256 7.44626V5.58734C52.8256 5.49739 52.8951 5.42743 52.9844 5.41744H54.0855L55.266 7.48624H56.2482L55.0676 5.41744H55.2561C55.3454 5.41744 55.4347 5.37746 55.4942 5.3175L56.139 4.65788C56.1986 4.59791 56.2382 4.50797 56.2382 4.41802V3.48856H56.2482Z" fill="white"/>
<path fill-rule="evenodd" clip-rule="evenodd" d="M58.1032 3.34862H60.9702C60.99 3.34862 61 3.32863 61 3.31864V2.5291C61 2.50911 60.9801 2.49911 60.9702 2.49911H58.0735C57.9842 2.49911 57.8949 2.53909 57.8354 2.59906L57.1807 3.25867C57.1211 3.31864 57.0815 3.40859 57.0815 3.49854V6.4868C57.0815 6.57675 57.1211 6.6667 57.1807 6.72666L57.8354 7.38628C57.8949 7.44625 57.9842 7.48622 58.0735 7.48622H60.9702C60.99 7.48622 61 7.46624 61 7.45624V6.6667C61 6.64671 60.9801 6.63672 60.9702 6.63672H58.1032C58.004 6.63672 57.9346 6.55676 57.9346 6.46681V5.60731C57.9346 5.50737 58.014 5.43741 58.1032 5.43741H60.1171C60.1369 5.43741 60.1468 5.41742 60.1468 5.40743V4.61789C60.1468 4.5979 60.127 4.5879 60.1171 4.5879H58.1032C58.004 4.5879 57.9346 4.50795 57.9346 4.418V3.5585C57.9346 3.41858 58.004 3.34862 58.1032 3.34862Z" fill="white"/>
<path fill-rule="evenodd" clip-rule="evenodd" d="M2.09319 5.50737C2.04358 5.24752 2.03366 4.99767 2.06342 4.74781L0.0198406 4.55792C-0.0198406 4.98767 0 5.41742 0.0793625 5.85717C0.158725 6.29691 0.287689 6.71667 0.466255 7.10645L2.32135 6.23695C2.22215 6.00708 2.14279 5.76722 2.09319 5.50737" fill="white"/>
<path fill-rule="evenodd" clip-rule="evenodd" d="M2.73804 6.87659L1.16071 8.20582C1.62696 8.76549 2.21226 9.21523 2.867 9.52505L3.73007 7.65613C3.35309 7.46624 3.00588 7.2064 2.73804 6.87659" fill="white"/>
<path fill-rule="evenodd" clip-rule="evenodd" d="M5.46611 7.88598C5.20818 7.93596 4.95025 7.94595 4.71217 7.91597L4.5336 9.97477C4.96017 10.0148 5.38675 9.99476 5.82324 9.91481C5.96212 9.88483 6.11093 9.85484 6.24981 9.82486L5.71412 7.82602C5.63475 7.84601 5.54547 7.866 5.46611 7.88598Z" fill="white"/>
<path fill-rule="evenodd" clip-rule="evenodd" d="M4.45421 2.10935C4.80143 2.04939 5.15856 2.04939 5.48593 2.10935L6.36883 0.20046C5.65457 -0.00941791 4.88079 -0.0693831 4.09708 0.0705357C2.14278 0.420333 0.654735 1.88948 0.16864 3.70843L2.1527 4.24811C2.44039 3.17873 3.30346 2.31923 4.45421 2.10935" fill="white"/>
<path fill-rule="evenodd" clip-rule="evenodd" d="M6.82516 7.24637L8.14457 8.82545C8.47194 8.54561 8.76955 8.2158 9.01755 7.86601L7.34102 6.6767C7.19222 6.88658 7.02357 7.07646 6.82516 7.24637Z" fill="white"/>
<path fill-rule="evenodd" clip-rule="evenodd" d="M9.90046 4.55792L7.85687 4.73762C7.87671 4.90734 7.87671 5.07706 7.85687 5.24678L9.90046 5.42648C9.93022 5.14695 9.93022 4.85743 9.90046 4.55792" fill="white"/>
<path fill-rule="evenodd" clip-rule="evenodd" d="M7.27158 0.000579834L5.36688 4.12819L13.6107 0.000579834H7.27158Z" fill="#FF0046"/>
</g>
<defs>
<clipPath id="clip0_61_116">
<rect width="61" height="10" fill="white"/>
</clipPath>
</defs>
</svg>
