<svg width="33" height="10" viewBox="0 0 33 10" fill="none" xmlns="http://www.w3.org/2000/svg">
<g clip-path="url(#clip0_61_116)">
<path d="M0.0642857 9.9C0.121429 9.96667 0.202381 10 0.307143 10H6.93572C7.04048 10 7.13571 9.96667 7.22143 9.9C7.30714 9.83333 7.35952 9.74762 7.37857 9.64286L7.69286 8.12857C7.72143 8.02381 7.70714 7.9381 7.65 7.87143C7.59286 7.79524 7.51191 7.75714 7.40714 7.75714H3.12143L3.9351 3.96001H1.2224L0.00714286 9.64286C-0.0119048 9.74762 0.00714287 9.83333 0.0642857 9.9Z" fill="#E52534"/>
<path d="M1.6116 2.14001H4.3251L4.70714 0.357143C4.72619 0.252381 4.70714 0.166667 4.65 0.1C4.59286 0.0333335 4.51191 0 4.40714 0H2.42143C2.31667 0 2.22143 0.0333335 2.13571 0.1C2.05952 0.166667 2.0119 0.252381 1.99286 0.357143L1.6116 2.14001Z" fill="#E52534"/>
<path d="M9.71849 3.96001L8.50324 9.64286C8.48419 9.73809 8.49848 9.82381 8.54609 9.9C8.60324 9.96667 8.68419 10 8.78895 10H10.8318C10.927 10 11.0175 9.96667 11.1032 9.9C11.189 9.83333 11.2413 9.74762 11.2604 9.64286L12.4756 3.96001H9.71849Z" fill="#E52534"/>
<path d="M12.8648 2.14001H10.1077L10.489 0.357143C10.508 0.252381 10.5556 0.166667 10.6318 0.1C10.7175 0.0333335 10.8128 0 10.9175 0H12.9461C13.0413 0 13.1175 0.0333335 13.1747 0.1C13.2413 0.166667 13.2651 0.252381 13.2461 0.357143L12.8648 2.14001Z" fill="#E52534"/>
<path d="M14.8914 3.96001L15.4761 9.57143C15.4761 9.68571 15.519 9.78571 15.6047 9.87143C15.6904 9.95714 15.8142 10 15.9761 10H18.319C18.6047 10 18.8333 9.85714 19.0047 9.57143L21.9682 3.96001H19.1844L17.7047 6.84286L17.4496 3.96001H14.8914Z" fill="#E52534"/>
<path d="M17.2885 2.14001H14.7018L14.519 0.385714C14.5094 0.271428 14.538 0.180952 14.6047 0.114286C14.6714 0.0380953 14.7571 0 14.8618 0H16.6761C16.819 0 16.9285 0.0380953 17.0047 0.114286C17.0809 0.190477 17.1237 0.280953 17.1333 0.385714L17.2885 2.14001Z" fill="#E52534"/>
<path d="M20.1185 2.14001H22.9294L23.8333 0.428572C23.8618 0.371429 23.8761 0.314286 23.8761 0.257143C23.8761 0.180952 23.8523 0.119047 23.8047 0.0714285C23.7666 0.0238095 23.7094 0 23.6333 0H21.619C21.4761 0 21.3523 0.0380953 21.2475 0.114286C21.1428 0.190477 21.0666 0.280953 21.019 0.385714L20.1185 2.14001Z" fill="#E52534"/>
<path d="M24.374 3.96001L23.1656 9.64286C23.1466 9.74762 23.1656 9.83333 23.2228 9.9C23.2799 9.96667 23.3609 10 23.4656 10H30.3228C30.418 10 30.5085 9.96667 30.5942 9.9C30.6799 9.83333 30.7323 9.74762 30.7513 9.64286L31.0513 8.22857C31.0704 8.12381 31.0513 8.03809 30.9942 7.97143C30.9466 7.89524 30.8704 7.85714 30.7656 7.85714H26.1371L26.5228 6H30.7371C30.8418 6 30.9371 5.96667 31.0228 5.9C31.1085 5.82381 31.1609 5.73333 31.1799 5.62857L31.4513 4.32857C31.4704 4.22381 31.4513 4.13809 31.3942 4.07143C31.3541 4.00732 31.2938 3.97018 31.2133 3.96001H24.374Z" fill="#E52534"/>
<path d="M31.9178 2.14001H24.761L25.1371 0.371429C25.1561 0.266667 25.2085 0.180952 25.2942 0.114286C25.3799 0.0380953 25.4751 0 25.5799 0H32.3228C32.4275 0 32.5037 0.0380953 32.5513 0.114286C32.6085 0.180952 32.6275 0.266667 32.6085 0.371429L32.3085 1.78571C32.2894 1.89048 32.2371 1.97619 32.1513 2.04286C32.0801 2.09828 32.0022 2.13067 31.9178 2.14001Z" fill="#E52534"/>
</g>
<defs>
<clipPath id="clip0_61_116">
<rect width="33" height="10" fill="white"/>
</clipPath>
</defs>
</svg>
