<svg width="16" height="16" viewBox="0 0 16 16" fill="none" xmlns="http://www.w3.org/2000/svg">
<g clip-path="url(#clip0_13_1011)">
<mask id="mask0_13_1011" style="mask-type:alpha" maskUnits="userSpaceOnUse" x="0" y="0" width="16" height="16">
<rect width="16" height="16" rx="4" fill="#0AB259"/>
</mask>
<g mask="url(#mask0_13_1011)">
<rect width="16" height="16" rx="4" fill="#0AB259"/>
<rect x="1" width="2" height="16" fill="#00A14C"/>
<rect x="5" width="2" height="16" fill="#00A14C"/>
<rect x="9" width="2" height="16" fill="#00A14C"/>
<rect x="13" width="2" height="16" fill="#00A14C"/>
</g>
<path d="M3.4822 12.8C3.381 12.8 3.3028 12.7678 3.2476 12.7034C3.1924 12.639 3.174 12.5562 3.1924 12.455L5.0968 3.49879C5.1152 3.39759 5.1658 3.31479 5.2486 3.25039C5.3314 3.17679 5.4234 3.13999 5.5246 3.13999H9.5956C10.58 3.13999 11.3482 3.33319 11.9002 3.71959C12.4614 4.09679 12.742 4.63039 12.742 5.32039C12.742 5.47679 12.719 5.66999 12.673 5.89999C12.5718 6.35999 12.3694 6.74639 12.0658 7.05919C11.7714 7.37199 11.4586 7.60199 11.1274 7.74919C11.4126 7.89639 11.6426 8.11259 11.8174 8.39779C11.9922 8.68299 12.0796 9.00959 12.0796 9.37759C12.0796 9.47879 12.0612 9.63979 12.0244 9.86059C11.822 10.8174 11.3942 11.5488 10.741 12.0548C10.097 12.5516 9.2 12.8 8.05 12.8H3.4822ZM8.6572 6.96259C9.0436 6.96259 9.361 6.83839 9.6094 6.58999C9.8578 6.34159 9.982 6.04259 9.982 5.69299C9.982 5.47219 9.913 5.30199 9.775 5.18239C9.637 5.06279 9.4254 5.00299 9.1402 5.00299H7.3738L6.946 6.96259H8.6572ZM7.9534 10.937C8.303 10.937 8.602 10.8312 8.8504 10.6196C9.108 10.408 9.2644 10.155 9.3196 9.86059C9.3472 9.75019 9.361 9.64899 9.361 9.55699C9.361 9.31779 9.2828 9.12919 9.1264 8.99119C8.97 8.84399 8.7354 8.77039 8.4226 8.77039H6.5734L6.1042 10.937H7.9534Z" fill="white"/>
<path d="M6.90895 2.18179L6.6544 3.2H8.1544L8.37985 2.29821C8.41772 2.14673 8.30315 2 8.14702 2H7.14179C7.03166 2 6.93566 2.07495 6.90895 2.18179Z" fill="white"/>
<path d="M9.30896 2.18179L9.0544 3.2L10.5544 3.5L10.797 2.28707C10.8267 2.13856 10.7131 2 10.5616 2H9.54179C9.43166 2 9.33567 2.07495 9.30896 2.18179Z" fill="white"/>
<path d="M4.5544 12.8L4.32895 13.7018C4.29109 13.8533 4.40565 14 4.56179 14H5.56702C5.67714 14 5.77314 13.925 5.79985 13.8182L6.0544 12.8H4.5544Z" fill="white"/>
<path d="M6.9544 12.8L6.72895 13.7018C6.69109 13.8533 6.80565 14 6.96179 14H7.98142C8.08472 14 8.17644 13.9339 8.2091 13.8359L8.7544 12.2L6.9544 12.8Z" fill="white"/>
</g>
<defs>
<clipPath id="clip0_13_1011">
<rect width="16" height="16" fill="white"/>
</clipPath>
</defs>
</svg>
