<svg width="32" height="32" viewBox="0 0 32 32" fill="none" xmlns="http://www.w3.org/2000/svg">
<mask id="mask0_13_767" style="mask-type:alpha" maskUnits="userSpaceOnUse" x="0" y="0" width="32" height="32">
<circle cx="16" cy="16" r="16" fill="#D9D9D9"/>
</mask>
<g mask="url(#mask0_13_767)">
<circle cx="16" cy="16" r="16" fill="white"/>
<path d="M15.7821 32.6228L24.5002 30.2868L21.4286 25.1637L16.1194 5.34979L16.218 -0.622821L7.4999 1.71319L10.5716 6.83634L15.8807 26.6502L15.7821 32.6228Z" fill="#18894D"/>
<path d="M1.49529 24.1226L7.87739 30.5047L10.7783 25.283L25.2831 10.7783L30.5048 7.8773L24.1227 1.49521L21.2218 6.71692L6.71701 21.2217L1.49529 24.1226Z" fill="#18894D"/>
<path d="M32.6229 15.782L30.2869 24.5001L25.1637 21.4285L5.34984 16.1193L-0.62277 16.2179L1.71324 7.49981L6.83639 10.5715L26.6503 15.8806L32.6229 15.782Z" fill="#18894D"/>
<circle cx="15.9999" cy="16" r="12.7179" fill="#18894D"/>
<circle cx="16" cy="16" r="11.0769" fill="white"/>
<path d="M21.3045 14.4449C21.5347 12.9033 20.3617 12.0745 18.7577 11.5216L19.2786 9.43345L18.008 9.11671L17.5004 11.15C17.1668 11.0668 16.8239 10.9878 16.4831 10.9104L16.9925 8.8637L15.7231 8.54696L15.2036 10.6344L12.6415 9.99926L12.3035 11.3571C12.3035 11.3571 13.246 11.5733 13.2261 11.5868C13.7406 11.7153 13.8339 12.0559 13.8181 12.3261L12.3926 18.0468C12.3296 18.2032 12.1701 18.4377 11.8105 18.348C11.8233 18.3665 10.8872 18.1163 10.8872 18.1163L10.2565 19.5736L12.8149 20.22L12.2891 22.3325L13.5579 22.6493L14.0788 20.5595C14.4261 20.6535 14.7619 20.7404 15.0909 20.8222L14.572 22.9023L15.8424 23.219L16.3682 21.1106C18.5346 21.5207 20.1636 21.3552 20.8484 19.396C21.4008 17.8175 20.8213 16.9069 19.6815 16.3129C20.5115 16.1205 21.1367 15.5744 21.3035 14.4457L21.3045 14.4449ZM18.4011 18.5181C18.0075 20.0965 15.3524 19.2435 14.4909 19.0292L15.1885 16.2308C16.0495 16.4459 18.8107 16.8717 18.4016 18.5178L18.4011 18.5181ZM18.7952 14.4225C18.437 15.8591 16.2262 15.1292 15.5087 14.9501L16.1403 12.4114C16.858 12.5907 19.1677 12.9246 18.7942 14.4224" fill="#F59424"/>
</g>
</svg>
