<svg width="989" height="72" viewBox="0 0 989 72" fill="none" xmlns="http://www.w3.org/2000/svg">
<g clip-path="url(#clip0_36_89)">
<path d="M274.592 25.4801C274.609 22.687 275.207 19.9281 276.349 17.3792L278.291 12.9333L273.722 11.5715C271.728 10.9828 270.278 9.47156 269.408 7.07292L267.361 1.5376L262.871 5.27174C261.512 6.51555 259.757 7.23773 257.916 7.31015C255.56 7.23921 253.319 6.27856 251.642 4.62156L248.752 1.75725L245.861 4.63035C244.189 6.28753 241.95 7.2484 239.597 7.31893C237.752 7.24616 235.992 6.52067 234.632 5.27174L230.143 1.5376L228.131 7.09049C227.252 9.48913 225.811 11.0004 223.825 11.589L219.248 12.9509L221.198 17.3967C222.319 19.9449 222.902 22.6965 222.912 25.4801C222.912 33.0714 219.221 34.5738 219.221 42.5429C219.221 53.2094 227.129 60.871 235.827 63.1378C240.141 64.2273 242.145 64.3416 245.36 65.2465C245.782 65.6946 248.752 68.928 248.752 68.928C248.752 68.928 251.722 65.6946 252.143 65.2465C255.359 64.3679 257.415 64.2273 261.685 63.1378C270.401 60.871 278.282 53.2094 278.282 42.5429C278.282 34.5738 274.592 33.0714 274.592 25.4801ZM261.158 61.0994C256.545 62.268 253.356 62.5755 251.01 63.4278C250.702 63.7089 248.752 65.844 248.752 65.844C248.752 65.844 246.801 63.7089 246.503 63.4278C244.157 62.5492 240.967 62.268 236.346 61.0994C226.628 58.6217 221.295 50.3978 221.295 42.5605C221.295 35.4436 225.029 33.2559 225.029 25.4801C224.925 21.5805 223.927 17.7569 222.112 14.304C222.112 14.304 229.141 13.6889 231.074 5.05209C231.074 5.05209 235.309 9.4452 239.597 9.4452C245.114 9.43642 248.752 4.70943 248.752 4.70943C248.752 4.70943 252.389 9.43642 257.916 9.43642C262.204 9.43642 266.43 5.0433 266.43 5.0433C268.336 13.6802 275.392 14.2952 275.392 14.2952C273.591 17.7545 272.608 21.581 272.519 25.4801C272.519 33.2559 276.209 35.4436 276.209 42.5605C276.209 50.3978 270.884 58.6217 261.158 61.0994Z" fill="#CFD2D3"/>
<path d="M270.445 25.48C270.459 22.1005 271.168 18.76 272.527 15.6658C272.527 15.6658 267.73 14.6905 265.498 8.56654C263.39 10.4062 260.712 11.4641 257.916 11.5626C254.48 11.4658 251.207 10.0757 248.752 7.67035C246.299 10.0744 243.029 11.4644 239.596 11.5626C236.815 11.457 234.153 10.3993 232.058 8.56654C229.826 14.7169 225.029 15.6658 225.029 15.6658C226.37 18.7638 227.061 22.1042 227.059 25.48C227.059 33.7039 223.368 36.085 223.368 42.5605C223.368 51.6191 230.397 57.3828 236.864 59.0434C242.004 60.3526 245.36 60.5019 247.618 61.6002C247.618 61.6002 248.444 62.3558 248.752 62.7073C249.059 62.3558 249.885 61.6002 249.885 61.6002C252.143 60.5019 255.508 60.3526 260.648 59.0434C267.132 57.3828 274.135 51.6191 274.135 42.5605C274.135 36.085 270.445 33.7039 270.445 25.48ZM229.422 25.48C229.404 22.583 228.929 19.7069 228.016 16.9574C230.061 15.8022 231.759 14.1217 232.936 12.0898C234.957 13.2688 237.248 13.9044 239.588 13.9349C242.901 13.8815 246.111 12.7735 248.752 10.7719C251.394 12.7714 254.603 13.8791 257.916 13.9349C258.551 13.935 259.186 13.885 259.814 13.7856L226.154 39.2656C227.12 35.426 229.422 32.2542 229.422 25.48ZM234.008 55.4147C229.694 53.183 225.908 48.9041 225.732 43.0525L265.27 13.1793C266.382 14.7592 267.835 16.0685 269.522 17.0101C268.603 19.7409 268.117 22.5988 268.081 25.48C268.077 26.7914 268.171 28.1013 268.363 29.3987L234.008 55.4147ZM260.077 56.7326C256 57.7782 251.019 58.3142 249.534 59.184C249.263 59.3944 249.011 59.6266 248.778 59.8781C248.547 59.6281 248.297 59.396 248.031 59.184C246.52 58.3054 241.538 57.7782 237.488 56.7326L237.022 56.6096L269.065 32.3596C270.155 36.208 271.824 38.7297 271.824 42.5605C271.824 50.2396 265.753 55.2917 260.112 56.7326" fill="#CFD2D3"/>
<path d="M240.405 43.0525L236.715 37.3503L232.62 40.4167C232.817 40.4234 233.01 40.4692 233.189 40.5512C233.368 40.6333 233.528 40.7501 233.662 40.8948C233.795 41.0395 233.898 41.2092 233.965 41.3941C234.032 41.579 234.062 41.7753 234.052 41.9718V52.7174L236.943 50.5296V42.9647L240.238 48.0519L243.296 45.7411V32.3685L240.405 34.5562V43.0525Z" fill="#CFD2D3"/>
<path d="M252.134 30.6288L248.875 33.089V28.116L244.482 31.4547C244.679 31.4591 244.874 31.5032 245.055 31.5844C245.235 31.6656 245.397 31.7822 245.531 31.9272C245.666 32.0723 245.77 32.2429 245.837 32.4288C245.904 32.6148 245.933 32.8124 245.923 33.0099V43.773L248.892 41.5237V36.6298L252.152 34.1609V39.0548L254.964 36.9022V23.5471L252.134 25.691V30.6288Z" fill="#CFD2D3"/>
<path d="M260.402 29.3811V19.4263L256.009 22.7651C256.207 22.7695 256.402 22.8136 256.582 22.8948C256.762 22.976 256.925 23.0925 257.059 23.2376C257.193 23.3826 257.297 23.5532 257.364 23.7392C257.432 23.9252 257.461 24.1228 257.45 24.3203V35.0395L265.648 28.8364C265.535 27.7028 265.535 26.5609 265.648 25.4273L260.402 29.3811Z" fill="#CFD2D3"/>
<path d="M265.243 13.1266L225.732 43.0525C225.925 48.9305 229.694 53.2094 234 55.4411L268.371 29.3987C268.176 28.1017 268.079 26.7917 268.081 25.4801C268.1 22.583 268.574 19.7069 269.487 16.9574C267.8 16.0158 266.347 14.7065 265.235 13.1266M243.269 45.7411L240.22 48.0519L236.943 42.9647V50.5472L234.052 52.7174V42.007C234.063 41.8107 234.034 41.6142 233.967 41.4293C233.9 41.2444 233.797 41.0748 233.664 40.9305C233.53 40.7863 233.369 40.6703 233.19 40.5896C233.01 40.5089 232.817 40.465 232.62 40.4606L236.714 37.3503L240.405 43.0525V34.5563L243.295 32.3685L243.269 45.7411ZM254.963 36.9022L252.134 39.046V34.1609L248.875 36.6298V41.5237L245.905 43.773V33.045C245.916 32.8476 245.886 32.65 245.819 32.464C245.752 32.278 245.648 32.1074 245.514 31.9624C245.379 31.8173 245.217 31.7007 245.037 31.6196C244.856 31.5384 244.662 31.4943 244.464 31.4899L248.857 28.1511V33.0977L252.117 30.6288V25.691L254.946 23.5471L254.963 36.9022ZM265.63 28.8276L257.432 35.0307V24.3203C257.443 24.1228 257.414 23.9252 257.347 23.7393C257.28 23.5533 257.176 23.3827 257.041 23.2376C256.907 23.0926 256.745 22.976 256.564 22.8948C256.384 22.8137 256.189 22.7696 255.991 22.7651L260.385 19.4264V29.3812L265.656 25.4274C265.543 26.5609 265.543 27.7029 265.656 28.8364" fill="#111111"/>
<path d="M257.916 13.935C254.603 13.8791 251.394 12.7714 248.752 10.7719C246.113 12.7718 242.907 13.8797 239.596 13.935C237.254 13.906 234.96 13.2703 232.937 12.0898C231.753 14.1251 230.049 15.8083 227.999 16.9662C228.919 19.7115 229.399 22.5848 229.422 25.4801C229.422 32.2542 227.129 35.4261 226.162 39.2569L259.822 13.7768C259.195 13.8763 258.56 13.9262 257.925 13.9262" fill="#111111"/>
<path d="M236.978 56.6097L237.444 56.7327C241.512 57.7782 246.494 58.3142 247.987 59.184C248.253 59.3961 248.503 59.6281 248.734 59.8781C248.967 59.6266 249.219 59.3944 249.49 59.184C250.992 58.3054 255.974 57.7782 260.033 56.7327C265.674 55.2917 271.745 50.2397 271.745 42.5605C271.745 38.7297 270.076 36.208 268.986 32.3597L236.978 56.6097Z" fill="#111111"/>
<path d="M266.43 5.05207C266.43 5.05207 262.203 9.44519 257.916 9.44519C252.389 9.4364 248.752 4.70941 248.752 4.70941C248.752 4.70941 245.114 9.4364 239.597 9.4364C235.309 9.4364 231.074 5.04329 231.074 5.04329C229.167 13.6801 222.112 14.304 222.112 14.304C223.927 17.7569 224.925 21.5805 225.029 25.4801C225.029 33.2559 221.339 35.4436 221.339 42.5605C221.339 50.3978 226.672 58.6217 236.39 61.0994C241.011 62.268 244.192 62.5755 246.546 63.4278C246.845 63.7089 248.796 65.844 248.796 65.844C248.796 65.844 250.746 63.7089 251.054 63.4278C253.4 62.5491 256.589 62.268 261.202 61.0994C270.928 58.6217 276.253 50.3978 276.253 42.5605C276.253 35.4436 272.562 33.2559 272.562 25.4801C272.654 21.587 273.637 17.7667 275.436 14.3128C275.436 14.3128 268.407 13.6889 266.474 5.05207M270.445 25.4801C270.445 33.704 274.135 36.085 274.135 42.5605C274.135 51.6191 267.106 57.3828 260.648 59.0434C255.508 60.3526 252.143 60.502 249.885 61.6002C249.885 61.6002 249.059 62.3559 248.752 62.7073C248.444 62.3559 247.618 61.6002 247.618 61.6002C245.36 60.502 242.004 60.3526 236.864 59.0434C230.371 57.3828 223.368 51.6191 223.368 42.5605C223.368 36.085 227.059 33.704 227.059 25.4801C227.044 22.1005 226.335 18.76 224.976 15.6658C224.976 15.6658 229.782 14.6906 232.005 8.56657C234.112 10.4087 236.791 11.467 239.588 11.5627C243.024 11.4666 246.297 10.0765 248.752 7.67037C251.207 10.0757 254.48 11.4658 257.916 11.5627C260.712 11.4641 263.39 10.4062 265.498 8.56657C267.73 14.7169 272.527 15.6658 272.527 15.6658C271.168 18.76 270.459 22.1005 270.445 25.4801Z" fill="#111111"/>
<path d="M279.504 12.3622L273.942 10.7104C272.246 10.2096 270.999 8.88288 270.234 6.78297L267.774 0L262.291 4.57762C261.091 5.69058 259.534 6.33865 257.898 6.40516C255.784 6.32691 253.776 5.46209 252.266 3.98016L248.752 0.46567L245.237 3.98016C243.731 5.46223 241.726 6.32727 239.614 6.40516C237.979 6.33636 236.422 5.68861 235.221 4.57762L229.73 0L227.269 6.78297C226.505 8.88288 225.266 10.2096 223.562 10.7104L218 12.3622L220.363 17.7658C221.438 20.196 221.998 22.8227 222.007 25.4801C222.007 32.7726 218.308 34.442 218.308 42.5429C218.308 54.2198 227.269 61.8726 235.599 64.0252C239.807 65.0532 241.081 65.1235 244.877 66.0636L248.752 70.2898L252.627 66.0812C256.431 65.1411 257.696 65.0708 261.905 64.0428C270.234 61.8814 279.196 54.2374 279.196 42.5605C279.196 34.4596 275.497 32.7902 275.497 25.4976C275.503 22.8344 276.063 20.2014 277.14 17.7658L279.504 12.3622ZM274.592 25.4801C274.592 33.0714 278.282 34.5738 278.282 42.5429C278.282 53.2094 270.375 60.871 261.685 63.1378C257.371 64.2273 255.359 64.3415 252.143 65.2465C251.722 65.6946 248.752 68.9279 248.752 68.9279C248.752 68.9279 245.782 65.6946 245.36 65.2465C242.145 64.3679 240.141 64.2273 235.827 63.1378C227.103 60.871 219.221 53.2094 219.221 42.5429C219.221 34.5738 222.912 33.0714 222.912 25.4801C222.902 22.6965 222.318 19.9449 221.198 17.3967L219.256 12.9509L223.825 11.589C225.811 11.0004 227.261 9.48913 228.131 7.09049L230.143 1.53759L234.632 5.27174C235.996 6.51356 237.754 7.23527 239.597 7.31014C241.95 7.2396 244.189 6.27874 245.861 4.62156L248.752 1.75725L251.642 4.63913C253.318 6.29761 255.56 7.25851 257.916 7.32771C259.758 7.24671 261.513 6.5187 262.871 5.27174L267.361 1.5288L269.373 7.0817C270.252 9.48034 271.693 10.9916 273.687 11.5802L278.256 12.9421L276.314 17.3967C275.172 19.9457 274.574 22.7046 274.557 25.4976" fill="#111111"/>
</g>
<path d="M165.265 11.0001H102.299C100.63 10.9948 99.026 11.6475 97.8346 12.8166C97.2458 13.4064 96.7803 14.1076 96.4654 14.8792C96.1504 15.6508 95.9924 16.4774 96.0004 17.3108V45.4083C95.9913 46.2387 96.1484 47.0625 96.4624 47.8312C96.7764 48.6 97.2409 49.2982 97.8287 49.8848C98.4157 50.4716 99.1128 50.9368 99.8799 51.2536C100.647 51.5704 101.469 51.7326 102.299 51.7308H165.265C166.936 51.723 168.536 51.0533 169.715 49.8683C170.893 48.6832 171.554 47.0795 171.552 45.4083V17.3049C171.558 16.4767 171.4 15.6555 171.087 14.8889C170.773 14.1223 170.311 13.4255 169.726 12.839C169.141 12.2526 168.446 11.788 167.68 11.4723C166.914 11.1567 166.093 10.9961 165.265 11.0001Z" fill="white"/>
<path d="M169.34 17.3049C169.347 16.7671 169.246 16.2335 169.043 15.7352C168.841 15.237 168.541 14.784 168.162 14.4029C167.782 14.0218 167.331 13.7202 166.833 13.5156C166.336 13.3111 165.803 13.2078 165.265 13.2118H147.666L157.763 30.0856L158.695 30.2036L159.285 30.9762V31.6957L159.922 31.8255L160.511 32.6276V33.3236L161.172 33.4415L161.838 34.167V35.7712C162.632 36.4875 163.526 37.0837 164.492 37.5405C165.383 37.8826 165.483 39.3099 166.02 40.0707C166.692 41.1795 167.612 41.6219 167.418 42.2412C166.97 43.8985 165.271 46.6941 163.69 46.8238H157.439V49.5015H165.271C165.81 49.4991 166.343 49.3904 166.84 49.1814C167.337 48.9725 167.788 48.6675 168.166 48.2839C168.545 47.9002 168.844 47.4456 169.047 46.9461C169.249 46.4466 169.351 45.9119 169.346 45.3729V17.3049" fill="#BF0D3E"/>
<path d="M126.286 46.8651H123.26C123.26 39.304 125.814 35.1224 128.875 34.2908C129.294 34.2142 129.093 32.1499 128.563 31.5188H126.793C126.51 31.5188 126.675 30.988 126.675 30.988L128.109 27.927L127.914 27.0895H122.618L126.97 24.0462C127.171 16.0192 135.404 15.394 140.364 18.7381C143.313 20.6903 143.537 24.5593 143.313 27.2311C143.278 27.4021 142.547 27.29 142.547 27.29C142.547 27.29 142.045 30.239 143.355 30.239H149.14C151.5 30.1446 153.776 31.7429 153.776 31.7429L154.33 29.72L141.656 13.2118H102.299C101.211 13.2054 100.163 13.6294 99.3858 14.3914C99.0067 14.7751 98.7072 15.2302 98.5048 15.7302C98.3023 16.2303 98.2009 16.7655 98.2063 17.3049V45.4083C98.1995 45.9462 98.3003 46.48 98.5029 46.9784C98.7055 47.4767 99.0057 47.9295 99.3858 48.3101C100.159 49.0829 101.206 49.5177 102.299 49.5192H127.849C127.224 48.4457 126.51 47.2249 126.292 46.8651" fill="#041E42"/>
<path d="M48.1935 7.78284C46.0426 9.31812 41.9537 11.4292 36.6723 10.1285C27.5361 7.86824 24.9167 0 24.9167 0C24.9167 0 22.2973 7.88955 13.1611 10.1285C7.87968 11.4292 3.79079 9.33944 1.63985 7.78284H0V50.28C0 51.3461 0.255619 53.4784 2.00189 55.5895C4.15283 58.2122 7.79457 59.8968 12.8417 60.6217C16.8667 61.1975 19.8269 62.4768 21.9139 64.4812C23.4472 65.9738 24.9167 68.5326 24.9167 68.5326C24.9167 68.5326 26.4288 65.9099 27.9195 64.4812C30.0065 62.4555 32.988 61.1973 36.9917 60.6217C42.039 59.8968 45.6806 58.1908 47.8315 55.5895C49.5778 53.4784 49.8334 51.3461 49.8334 50.28V7.78284H48.1935Z" fill="white"/>
<path d="M48.3427 9.44601C48.3427 9.44601 43.338 13.3482 36.3102 11.5784C28.1111 9.53126 24.9166 3.36896 24.9166 3.36896C24.9166 3.36896 21.7222 9.5314 13.5231 11.5784C6.49525 13.3482 1.4906 9.44601 1.4906 9.44601V50.28C1.4906 51.6659 2.06563 57.5512 13.0545 59.1504C17.399 59.7687 20.6361 61.176 22.9572 63.4151C23.7877 64.2254 24.4267 65.0356 24.9165 65.782C25.4063 65.0357 26.0453 64.2041 26.8758 63.4151C29.1971 61.1762 32.4341 59.7687 36.7785 59.1504C47.7674 57.5512 48.3424 51.6659 48.3424 50.28V9.44601H48.3427Z" fill="#013369"/>
<path d="M24.9165 61.6453C24.9165 61.6453 28.1109 57.7218 36.3739 56.4424C45.8508 54.9711 45.5739 50.5145 45.5739 50.3013V28.8927H4.23772V50.2799C4.23772 50.5145 3.96093 54.971 13.4377 56.4211C21.722 57.7005 24.9165 61.6453 24.9165 61.6453Z" fill="white"/>
<path d="M15.2907 44.5227V34.3515L14.0129 33.6266V30.9825H19.8056V33.6266L18.5917 34.3515V55.0989L15.4824 54.1607L10.9888 40.8977V49.6402L12.4157 50.7277V53.4144L6.19715 51.8365V49.5337L7.62401 48.9792V34.3302L6.17584 33.6266V30.9825H10.8824L15.2907 44.5227ZM25.9601 53.8197L27.1953 55.3123V57.9563L21.0194 55.6535V53.4146L22.3824 52.8601V34.373L21.0194 33.6906V31.0252H31.7315V36.3986H29.3676L28.6435 34.2023H25.9175V40.4074H27.962L28.7712 39.2346H30.4111V44.7147H28.7712L28.0045 43.6058H25.9175V53.8197H25.9601ZM32.775 54.7579V52.1139L34.3083 50.8558V34.3516L33.0092 33.6693V31.0039H39.1851V33.6693L37.9712 34.3516V49.8323L40.6332 49.1074L41.1443 45.056H43.6573V51.8368L32.7749 54.758L32.775 54.7579Z" fill="#D50A0A"/>
<path d="M5.32372 24.5003L3.44971 23.0929H5.72839L6.47378 20.9179L7.21918 23.0929H9.49786L7.62385 24.5003L8.30531 26.6966L6.45247 25.3959L4.59963 26.6966L5.32372 24.5003ZM13.4377 24.5003L11.5637 23.0929H13.8424L14.5878 20.9179L15.3332 23.0929H17.6118L15.7378 24.5003L16.4193 26.6966L14.5665 25.3959L12.7136 26.6966L13.4377 24.5003ZM5.32372 17.1865L3.44971 15.7791H5.72839L6.47378 13.6041L7.21918 15.7791H9.49786L7.62385 17.1865L8.30531 19.3828L6.45247 18.0821L4.59963 19.3828L5.32372 17.1865ZM13.4377 17.1865L11.5637 15.7791H13.8424L14.5878 13.6041L15.3332 15.7791H17.6118L15.7378 17.1865L16.4193 19.3828L14.5665 18.0821L12.7136 19.3828L13.4377 17.1865ZM45.1906 26.7181L43.3377 25.4174L41.4849 26.7181L42.1664 24.5218L40.2923 23.1144H42.5923L43.3377 20.9394L44.0831 23.1144H46.3618L44.4878 24.5218L45.1906 26.7181ZM37.0979 26.7181L35.2451 25.4174L33.3922 26.7181L34.0737 24.5218L32.1997 23.1144H34.4784L35.2238 20.9394L35.9692 23.1144H38.2478L36.3738 24.5218L37.0979 26.7181ZM45.1906 19.3828L43.3377 18.0821L41.4849 19.3828L42.1664 17.1865L40.2923 15.7791H42.5923L43.3377 13.6041L44.0831 15.7791H46.3618L44.4878 17.1865L45.1906 19.3828ZM37.0979 19.3828L35.2451 18.0821L33.3922 19.3828L34.0737 17.1865L32.1997 15.7791H34.4784L35.2238 13.6041L35.9692 15.7791H38.2478L36.3738 17.1865L37.0979 19.3828ZM30.07 11.3013C30.2617 11.28 30.3682 11.5146 30.4747 11.6638C31.2839 13.7109 31.4969 16.2057 30.8794 18.5938C29.9423 22.2401 26.8756 25.5877 20.295 26.4407C20.146 26.462 19.9756 26.4194 19.9543 26.3341C20.2524 24.9482 20.9978 22.304 22.595 19.5107C22.8931 19.7027 23.1914 19.8945 23.4682 20.1078C23.5746 19.9371 23.7025 19.7453 23.8942 19.4254C23.085 18.7857 22.1479 18.338 21.1044 18.1461C21.1044 18.1461 20.9127 18.5512 20.7637 18.8497C20.7637 18.8497 21.1683 18.9349 21.6581 19.1056C20.2313 22.1335 19.7415 24.9482 19.6136 26.2276C19.2089 25.5879 18.8895 24.0952 18.7831 23.285C17.7396 15.6086 23.2553 11.1308 29.2609 11.0455C29.6655 11.0242 29.8146 11.1095 29.8146 11.1095C29.8146 11.1095 28.4941 11.6 26.9609 12.7726C26.9609 12.7726 26.5988 12.6234 26.2155 12.5167C25.9812 12.6659 25.7257 12.8366 25.4914 13.0072C26.2155 13.1779 27.1312 13.5404 28.0044 14.2653C28.196 14.0946 28.3877 13.9028 28.6007 13.7109C28.3877 13.5402 28.047 13.3058 27.7489 13.1351C29.1118 11.8131 30.0702 11.3013 30.0702 11.3013H30.07ZM24.4053 18.5512C24.5543 18.3379 24.7247 18.082 24.895 17.8262C24.2136 17.2505 23.2339 16.696 22.0413 16.4616C21.871 16.7175 21.5729 17.2078 21.5729 17.2078C22.5526 17.3998 23.5534 17.8475 24.4053 18.5512ZM25.4914 17.0372C25.6617 16.8026 25.8321 16.5895 26.0238 16.3549C25.0867 15.5873 24.0219 15.1394 23.1914 14.9902C22.9997 15.2035 22.808 15.438 22.6377 15.6512C23.7238 15.8645 24.7034 16.3762 25.4914 17.0372ZM26.7052 15.5872C26.8756 15.3739 27.0673 15.1821 27.3016 14.9688C26.7266 14.4996 25.896 13.9453 24.6609 13.6468C24.4479 13.8174 24.1924 14.0092 23.9581 14.2438C24.9378 14.4571 25.8747 14.9048 26.7054 15.5872H26.7052Z" fill="white"/>
<g clip-path="url(#clip1_36_89)">
<path fill-rule="evenodd" clip-rule="evenodd" d="M351.066 53.3335H346.552V14.9835H353.536L358.209 46.6189C357.511 39.1001 356.597 26.9603 356.597 20.5691V14.9835H361.109V53.3335H354.717L350.419 22.6087C350.796 29.4836 351.064 37.7017 351.064 42.3213V53.3321M363.688 53.3335V14.9835H370.079C374.323 14.9835 376.954 17.2926 376.954 22.664V28.3034C376.954 31.7954 375.879 33.567 374.375 34.4805C375.879 35.4478 376.954 37.1655 376.954 40.1199V45.7055C376.954 50.9691 374.161 53.3335 370.079 53.3335H363.688ZM368.844 19.8173V32.4933H369.488C371.314 32.4933 371.798 31.7954 371.798 29.7005V22.3959C371.798 20.6229 371.261 19.8173 369.703 19.8173H368.844ZM368.844 36.6832V48.4983H369.703C371.314 48.4983 371.798 47.5862 371.798 45.7594V39.2604C371.798 37.381 371.205 36.6832 369.488 36.6832H368.844ZM386.616 46.1353H383.394L382.963 53.3335H377.754L381.513 14.9835H388.818L392.471 53.3335H387.046L386.615 46.1353H386.616ZM383.608 41.7851H386.348L385.917 34.7486C385.757 31.9558 385.327 23.0937 385.005 18.3125H384.789L384.038 34.7486L383.608 41.7851ZM337.614 14H328.174C327.067 14.0007 326.006 14.4407 325.223 15.2232C324.441 16.0058 324.001 17.067 324 18.1737V50.1406C324 51.2479 324.44 52.3098 325.223 53.0933C326.005 53.8768 327.066 54.3179 328.174 54.3196H337.607C338.715 54.3182 339.778 53.8776 340.562 53.0943C341.346 52.311 341.788 51.2489 341.79 50.1406V18.1737C341.788 17.0668 341.348 16.0059 340.565 15.2235C339.782 14.4411 338.721 14.0011 337.614 14" fill="#FFFFFE"/>
<path fill-rule="evenodd" clip-rule="evenodd" d="M335.272 21.3908L335.282 21.5283C335.57 21.6953 335.716 21.8327 336.007 22.0187C336.776 22.5037 337.724 23.3659 337.604 26.3338C337.82 26.9805 337.916 28.2522 338.116 28.6605C338.516 29.4553 338.785 29.9726 338.902 30.7231C338.902 30.7231 339.016 31.8911 339.167 31.976C339.963 32.1565 339.733 32.2346 339.85 32.3707C339.974 32.531 340.434 32.5229 340.434 32.9514C340.593 33.1642 340.711 33.3865 340.8 33.6169V18.1737C340.799 17.3285 340.464 16.5181 339.866 15.9201C339.269 15.3221 338.459 14.9852 337.614 14.9835H334.564C335.054 15.1586 335.332 15.3634 335.492 15.6894C335.885 15.7231 336.354 16.6055 335.624 17.911C335.947 18.1265 335.695 18.4472 335.464 18.8203C335.396 18.9402 335.322 19.1531 335.105 19.1383C334.829 19.7216 334.494 20.2861 334.242 20.3212C334.165 20.4155 334.11 20.666 334.224 20.7846C334.596 20.9503 335.049 21.1793 335.272 21.3908ZM340.8 35.7091C340.589 36.2388 340.224 36.6929 339.752 37.0124C339.28 37.3319 338.723 37.5021 338.153 37.5009C337.779 37.5011 337.41 37.4277 337.064 37.2849C336.719 37.1421 336.406 36.9328 336.142 36.6688C335.878 36.4048 335.668 36.0914 335.525 35.7464C335.382 35.4015 335.309 35.0317 335.309 34.6583C335.309 33.3178 336.23 32.1929 337.482 31.8924C337.154 31.0706 336.462 29.7409 336.256 29.3058C336.062 28.872 335.593 26.1667 335.492 25.6319C335.469 25.5147 334.265 26.3311 334.262 26.381C334.192 26.4483 333.359 28.6254 333.324 28.7426C333.307 28.8167 333.305 29.1064 333.305 29.1064C333.305 29.1064 333.715 29.1576 333.951 29.873C334.184 30.587 334.894 33.1912 334.894 33.1912C334.894 33.1912 334.702 33.3905 334.694 33.3798C335.593 36.3868 335.279 37.6814 335.682 38.5639C336.188 39.806 336.326 39.643 336.76 40.6884C337.072 41.4496 337.42 44.4445 337.536 44.5765C338.021 45.1922 338.282 45.6718 338.282 46.0181C338.282 46.3683 337.871 47.399 338.021 47.9998C338.112 48.3541 338.159 49.145 338.324 49.2958C338.324 49.2958 338.475 49.5936 338.401 49.727C338.379 49.7714 338.336 49.8401 338.356 49.8954C338.623 50.8384 339.488 52.4497 338.088 53.2931H338.118C338.868 53.1762 339.552 52.7936 340.044 52.215C340.537 51.6364 340.805 50.9002 340.8 50.1406V35.7091Z" fill="#B52532"/>
<path fill-rule="evenodd" clip-rule="evenodd" d="M337.208 49.5276C336.696 49.0695 337.038 48.8769 337.017 48.6963C336.68 47.2993 335.57 46.4546 336.144 45.9938C336.002 45.5331 335.714 44.9537 335.725 44.9551C333.996 43.9622 332.524 42.3496 332.275 42.1125C331.972 41.7837 331.454 41.4523 331.359 41.1856C330.942 40.8043 328.905 37.9145 328.431 36.8502L327.604 36.733C327.227 35.1972 325.971 33.9079 325.94 32.368C325.929 31.7847 326.204 30.5371 326.306 30.2892C326.408 30.036 326.888 29.6224 326.888 29.6224V29.2101C325.085 29.2613 325.603 29.0767 325.293 28.3748C325.075 27.8898 325.231 27.7821 325.31 27.4453C325.552 26.4524 326.356 24.9192 326.688 24.2227C326.79 23.8711 327.138 23.0237 327.138 23.0237C328.482 20.2861 328.985 20.4869 330.581 20.3319L330.659 20.2188C332.26 20.1487 331.997 20.0288 332.222 18.4876C331.99 18.5873 331.92 18.0039 331.92 18.0039C331.794 17.1282 332.163 17.2939 332.338 17.2764C332.377 15.8349 332.524 15.3795 333.564 14.9821H328.175C327.756 14.9821 327.341 15.0648 326.953 15.2253C326.566 15.3859 326.214 15.6212 325.917 15.9179C325.621 16.2145 325.386 16.5667 325.226 16.9542C325.065 17.3417 324.983 17.757 324.984 18.1764V50.1419C324.984 51.9054 326.412 53.3348 328.176 53.3348H337.614C336.533 52.7501 337.172 51.6387 337.208 49.5289" fill="#253B73"/>
</g>
<g clip-path="url(#clip2_36_89)">
<path d="M483.743 22.2429C483.705 22.3209 483.63 22.3747 483.544 22.3846C481.575 22.613 479.483 22.3393 478.677 22.2127C477.331 20.8677 475.873 19.3716 474.799 18.0641C474.689 17.9302 474.683 17.7387 474.785 17.5976C476.317 15.4615 477.72 13.7665 478.313 13.0954C480.008 12.726 481.698 12.399 482.839 12.3524C482.926 12.3489 483.008 12.3886 483.058 12.4585C484.529 14.5047 485.582 16.4654 485.919 17.1818C485.244 18.9967 484.431 20.8301 483.743 22.2429ZM481.865 25.7049C480.78 27.5216 479.956 28.6169 479.692 28.9499C479.333 29.4561 478.419 30.7747 476.999 32.1085C476.909 32.1936 476.79 32.2426 476.666 32.248C474.888 32.3221 473.235 32.1974 472.591 32.0569C472.046 31.8315 470.777 31.2609 469.277 30.4318C469.146 30.3596 469.069 30.2187 469.079 30.07C469.158 28.9075 469.526 27.2516 469.853 25.5005C470.659 24.084 471.496 22.4677 472.363 21.1402C472.454 21.0005 472.625 20.9355 472.787 20.9796C475.383 21.6884 477.636 22.2267 478.551 22.4325C479.804 23.8849 481.018 24.9061 481.834 25.5392C481.885 25.5786 481.898 25.6497 481.865 25.7049ZM466.155 28.2295C466.023 28.3111 465.856 28.3067 465.729 28.2172C464.599 27.4169 463.249 26.3941 462.126 25.3442C461.463 24.2115 460.952 22.7619 460.595 21.5274C460.572 21.4479 460.59 21.3618 460.642 21.2978C461.903 19.7478 463.416 18.5213 464.049 18.0545C465.476 18.6701 467.114 19.2132 468.547 19.6898C468.693 19.7384 468.797 19.8698 468.809 20.0234C469.011 22.5725 469.478 24.634 469.603 25.4217C469.068 25.9933 467.67 27.2892 466.155 28.2295ZM459.875 18.1994C459.688 16.9961 459.565 15.7322 459.551 15.1534C459.52 13.8169 459.732 12.6333 459.979 11.5375C460.019 11.3581 460.113 11.1955 460.248 11.0712C460.965 10.4151 462.26 9.25765 463.077 8.73335C463.848 8.2393 465.99 7.54795 466.873 7.29148C467.044 7.24158 467.226 7.31769 467.314 7.47242C467.42 7.65894 467.531 7.84411 467.649 8.02639C468.344 9.1087 469.111 10.0405 469.433 10.444C469.006 12.1423 468.824 14.0464 468.741 15.6527C468.733 15.8033 468.637 15.9353 468.496 15.9902C466.262 16.8618 464.573 17.5437 464.006 17.8055C462.471 17.8703 461.008 18.1319 460.021 18.3044C459.951 18.3167 459.886 18.2691 459.875 18.1994ZM471.138 6.53636C471.199 6.44156 471.299 6.37836 471.411 6.36352C473.709 6.06004 475.811 6.01534 476.619 6.03768C478.089 7.01537 479.526 8.3054 480.673 9.52875C480.753 9.61449 480.765 9.7436 480.702 9.84264C479.884 11.1222 478.694 12.3508 478.171 12.8859C476.232 13.3447 474.177 14.0125 472.509 14.5599C472.347 14.6131 472.168 14.5528 472.071 14.4122C470.805 12.5736 470.001 10.9974 469.686 10.4126C470.028 8.87979 470.507 7.51481 471.138 6.53636ZM486.486 21.629C486.445 21.6476 486.398 21.6186 486.396 21.5737C486.299 19.6864 486.126 17.8525 486.035 17.1818C486.042 15.5519 485.772 13.8605 485.502 12.6132C485.492 12.5682 485.532 12.5279 485.578 12.5369C487.12 12.8518 487.615 13.4293 487.615 13.4293C486.799 11.599 485.622 10.2197 484.343 9.17729C483.25 6.88877 481.992 5.83037 481.992 5.83037C482.093 6.33654 482.023 6.90901 481.843 7.49978C481.832 7.53735 481.789 7.55528 481.753 7.53813C479.658 6.51381 477.494 6.04598 476.657 5.92883C475.406 5.32109 474.04 4.91896 472.929 4.61414C472.9 4.60605 472.892 4.5677 472.916 4.54785C474.39 3.32469 475.746 3.01331 475.746 3.01331C473.345 2.91716 471.279 3.35128 469.551 4.01508C466.969 3.80832 465.324 4.25709 465.324 4.25709C465.324 4.25709 466.037 5.10991 466.314 5.58469C466.347 5.64211 466.33 5.71571 466.275 5.75348C464.651 6.87875 463.486 8.11483 463.027 8.62949C462.515 8.69866 461.629 8.82102 460.855 9.01178C460.824 9.01948 460.798 8.98846 460.81 8.95918C461.585 7.11383 462.43 6.09221 462.43 6.09221C462.43 6.09221 457.447 9.62798 456.503 15.9816C456.503 15.9816 456.913 14.8553 458.301 13.1483C458.319 13.126 458.354 13.1304 458.366 13.1568C458.759 14.0266 459.209 14.7989 459.435 15.1534C458.671 16.3808 458.145 17.7192 457.82 18.8145C457.809 18.8525 457.78 18.8831 457.743 18.8971C456.589 19.3348 456.295 19.7524 456.295 19.7524C456.474 20.3648 456.827 20.9617 457.272 21.5243C457.31 21.5729 457.33 21.6337 457.327 21.6958C457.205 24.4073 458.08 26.1921 458.08 26.1921C458.278 25.245 458.665 24.3251 459.154 23.4618C459.173 23.4274 459.219 23.4188 459.25 23.4433C460.389 24.3471 461.569 25.1373 462.037 25.4179C462.278 26.034 462.97 27.6326 463.894 29.2727C463.913 29.3073 463.897 29.3512 463.86 29.3647C462.754 29.7674 461.619 29.9496 460.578 29.6964C460.578 29.6964 461.833 31.2585 465.704 31.9246C466.778 33.1926 468.085 34.2426 469.611 34.6074C469.611 34.6074 469.164 34.1161 469.054 32.285C469.051 32.2479 469.081 32.2162 469.118 32.2169C470.074 32.2312 471.371 32.2519 472.557 32.1659C472.978 32.4971 473.896 33.2244 474.791 33.6878C474.836 33.7109 474.838 33.7736 474.796 33.7996C473.222 34.7501 472.175 34.8328 472.175 34.8328C479.303 34.9845 483.583 30.3409 483.583 30.3409C482.409 31.1124 481.053 31.5921 479.703 31.8778C479.658 31.8875 479.618 31.8472 479.627 31.8017C479.878 30.5906 479.808 29.4196 479.79 29.007C481.481 28.5879 482.957 27.8331 484.049 27.0615C484.071 27.0459 484.1 27.0457 484.123 27.0611C484.577 27.3771 484.967 27.7316 485.355 28.3218C485.355 28.3218 486.094 27.2767 486.349 24.8553C488.18 22.4677 488.452 20.0239 488.452 20.0239C487.993 20.7414 487.299 21.2585 486.486 21.629ZM472.374 45.2043C469.316 45.2043 466.542 46.5694 464.85 48.5878L465.387 49.2491C466.924 47.341 469.538 46.0291 472.374 46.0291C475.21 46.0291 477.824 47.341 479.36 49.2491L479.897 48.5878C478.205 46.5694 475.431 45.2043 472.374 45.2043ZM465.222 45.6328C465.021 45.796 464.787 45.8757 464.581 45.8512C464.319 45.8213 464.16 45.7143 463.9 45.3937L462.401 43.5543L461.592 44.21L463.225 46.2147C463.572 46.6392 463.968 46.8665 464.434 46.9092C464.489 46.9144 464.544 46.9172 464.598 46.9177C465.05 46.9216 465.47 46.7625 465.876 46.4341C466.33 46.0646 466.578 45.6358 466.637 45.1229C466.69 44.6582 466.548 44.2253 466.202 43.7997L464.569 41.7956L463.76 42.4513L465.259 44.2915V44.2919C465.52 44.6113 465.593 44.7885 465.568 45.0506C465.55 45.2568 465.424 45.4691 465.222 45.6328ZM470.751 39.8381L468.132 40.3686C468.013 40.3928 467.918 40.4525 467.859 40.5416C467.8 40.6307 467.782 40.7406 467.806 40.8598L468.328 43.4259C468.413 43.8432 468.6 44.1438 468.885 44.3193C469.074 44.4353 469.3 44.4933 469.56 44.4931C469.693 44.493 469.835 44.4777 469.985 44.4473L471.622 44.1159L471.425 43.1472L469.832 43.4699C469.506 43.5356 469.4 43.4996 469.326 43.1345L469.27 42.8592L471.112 42.4862L470.917 41.5286L469.075 41.9015L468.935 41.2145L470.948 40.8067L470.751 39.8381ZM475.844 41.2383L477.413 41.6439L477.661 40.689L476.047 40.2718C475.163 40.0431 474.557 40.3736 474.342 41.2021L473.683 43.7397C473.653 43.8576 473.665 43.9681 473.719 44.0601C473.773 44.1519 473.864 44.2164 473.982 44.247L474.581 44.4018L475.006 42.7606L476.822 43.2301L477.067 42.2862L475.251 41.8163L475.321 41.5451C475.415 41.1853 475.522 41.1551 475.844 41.2383ZM483.987 43.5559L484.541 42.8733C484.266 42.5986 483.98 42.332 483.681 42.0751C480.581 39.4046 476.565 37.9341 472.374 37.9341C468.182 37.9341 464.167 39.4046 461.066 42.0751C460.768 42.332 460.481 42.5984 460.206 42.8731L460.76 43.5558C461.04 43.2733 461.333 42.9994 461.638 42.7361C464.58 40.2026 468.392 38.8074 472.374 38.8074C476.355 38.8074 480.168 40.2026 483.109 42.7361C483.415 42.9994 483.707 43.2733 483.987 43.5559ZM479.758 46.9437L479.938 46.325L479.164 45.7485L479.787 45.3034L480.148 45.5737L480.557 44.1958L478.181 45.7292L477.207 45.1792L480.934 42.7721C481.078 42.6792 481.274 42.5973 481.523 42.7883L481.682 42.9108C481.934 43.1038 481.898 43.3249 481.849 43.4744L480.611 47.7233L479.758 46.9437ZM462.215 67.0663H459.466V64.9598H461.104L461.775 65.5305H461.798V63.38H461.775L461.104 63.9507H459.466V62.1182H462.116L462.886 62.9413H462.908L462.82 61.1196H457.168V61.1419L457.685 61.7672V67.4286L457.168 68.0537V68.0757H463.062L463.205 65.9802H463.183L462.215 67.0663ZM463.254 53.065L465.2 58.0243H466.289L468.092 53.0104L468.4 57.3766L467.718 58.0018V58.0243H470.676V58.0018L470.105 57.3766L469.686 51.7151L470.137 51.0899V51.0682H467.674L466.003 55.7087L464.199 51.0682H461.703V51.0899L462.209 51.7151L461.912 57.3766L461.308 58.0018V58.0243H463.737V58.0018L463.133 57.3766L463.254 53.065ZM455.069 67.0552H452.683V61.7672L453.332 61.1419V61.1196H450.385V61.1419L450.902 61.7672V67.4286L450.385 68.0426V68.0757H455.916L456.18 65.8928H456.157L455.069 67.0552ZM449.742 58.0018V58.0243H452.547V58.0018L452.029 57.3766V51.7151L452.547 51.0899V51.0682H449.742V51.0899L450.248 51.7151V53.8218H447.752V51.7151L448.258 51.0899V51.0682H445.454V51.0899L445.971 51.7151V57.3766L445.454 58.0018V58.0243H448.258V58.0018L447.752 57.3766V54.93H450.248V57.3766L449.742 58.0018ZM493.538 67.0663H490.789V64.9598H492.427L493.098 65.5305H493.12V63.38H493.098L492.427 63.9507H490.789V62.1182H493.439L494.209 62.9413H494.23L494.143 61.1196H488.491V61.1419L489.008 61.7672V67.4286L488.491 68.0537V68.0757H494.385L494.528 65.9802H494.505L493.538 67.0663ZM468.303 65.2998L467.478 62.5355L466.511 65.2998H468.303ZM470.766 67.4286L471.338 68.0537V68.0757H468.358V68.0537L468.93 67.4286L468.611 66.3425H466.148L465.774 67.4286L466.313 68.0537V68.0757H463.982V68.0537L464.532 67.4286L466.676 61.7672L466.269 61.1419V61.1196H468.633L470.766 67.4286ZM442.201 57.1025C440.771 57.1025 439.858 55.654 439.858 54.403C439.858 52.8672 440.694 51.869 441.892 51.869C442.211 51.869 442.519 51.9019 442.794 51.9781L443.872 53.3061H443.894L443.817 51.1117C443.509 50.9912 442.838 50.8263 442.013 50.8263C439.463 50.8263 438 52.5601 438 54.5568C438 56.5319 439.407 58.265 441.826 58.265C442.475 58.265 443.432 58.0459 444.092 57.5522L444.191 56.4002H444.169C443.608 56.8389 442.805 57.1025 442.201 57.1025ZM482.241 58.0018L481.735 57.3766V51.7151L482.241 51.0899V51.0682H479.437V51.0899L479.954 51.7151V57.3766L479.437 58.0018V58.0243H482.241V58.0018ZM476.09 64.8171L476.782 65.443V66.7486C476.562 67.0007 476.178 67.2089 475.661 67.2089C474.429 67.2089 473.781 65.706 473.781 64.4442C473.781 63.0727 474.474 61.9209 475.903 61.9209C476.299 61.9209 476.717 61.9539 477.057 62.0741L478.157 63.2589H478.179L478.113 61.3502C477.475 61.0209 476.705 60.8789 475.925 60.8789C473.583 60.8789 471.922 62.3161 471.922 64.6857C471.922 66.6711 473.198 68.3175 475.188 68.3175C476.057 68.3175 476.848 68.1196 477.585 67.5824L478.453 68.3175H478.476V65.443L479.025 64.8171V64.7953H476.09V64.8171ZM474.27 54.6449C474.49 54.7107 474.743 54.7434 475.007 54.7434C475.975 54.7434 476.392 54.2168 476.392 53.4377C476.392 52.5159 475.853 52.0774 474.852 52.0774H474.27V54.6449ZM472.489 57.3766V51.7151L471.972 51.0899V51.0682H475.271C477.272 51.0682 478.185 51.9781 478.185 53.3615C478.185 54.7985 477.096 55.687 475.612 55.687C475.128 55.687 474.633 55.654 474.27 55.5665V57.3766L474.996 58.0018V58.0243H471.972V58.0018L472.489 57.3766ZM489.102 55.0505C489.102 53.844 488.651 51.9237 487.111 51.9237C485.88 51.9237 485.528 53.1524 485.528 53.9861C485.528 55.2042 486.034 57.1681 487.519 57.1681C488.585 57.1681 489.102 56.1584 489.102 55.0505ZM487.254 58.265C485.077 58.265 483.67 56.4766 483.67 54.4476C483.67 52.3516 485.286 50.8263 487.31 50.8263C489.541 50.8263 490.971 52.5711 490.971 54.5679C490.971 56.85 489.245 58.265 487.254 58.265ZM484.929 61.1419L485.501 61.7672V65.7283C485.501 66.8691 484.94 67.1544 484.027 67.1544C483.104 67.1544 482.543 66.8908 482.543 65.7283V61.7672L483.115 61.1419V61.1196H480.245V61.1419L480.762 61.7672V65.7283C480.762 67.6258 481.729 68.3175 483.796 68.3175C485.677 68.3175 486.633 67.6699 486.633 65.7829V61.7672L487.139 61.1419V61.1196H484.929V61.1419ZM498.209 61.9966C498.209 61.5022 497.833 61.1283 497.359 61.1283C496.88 61.1283 496.505 61.5022 496.505 61.9966C496.505 62.5012 496.88 62.8726 497.359 62.8726C497.833 62.8726 498.209 62.5012 498.209 61.9966ZM498.42 61.9966C498.42 62.6037 497.93 63.0464 497.359 63.0464C496.783 63.0464 496.294 62.6037 496.294 61.9966C496.294 61.3969 496.783 60.9536 497.359 60.9536C497.93 60.9536 498.42 61.3969 498.42 61.9966ZM497.358 61.9243C497.512 61.9243 497.652 61.9159 497.652 61.7296C497.652 61.5795 497.516 61.5523 497.387 61.5523H497.137V61.9243H497.358ZM497.529 62.0719L497.871 62.6035H497.667L497.349 62.0805H497.137V62.6035H496.955V61.3969H497.415C497.701 61.3969 497.842 61.5022 497.842 61.7397C497.842 61.9558 497.706 62.049 497.529 62.0719ZM497.072 51.0899L497.743 51.7151V55.4016L494.917 51.0682H492.377V51.0899L492.894 51.7151V57.3766L492.377 58.0018V58.0243H494.697V58.0018L494.016 57.3766V52.7683L497.545 58.0243H498.865V51.7151L499.381 51.0899V51.0682H497.072V51.0899ZM504.163 53.7453C502.898 53.3942 502.514 53.2405 502.514 52.6592C502.514 51.99 503.382 51.8579 503.932 51.8579C504.394 51.8579 504.823 51.9125 505.208 52.0335L506.263 53.1747H506.285L506.197 51.2104C505.537 50.9584 504.845 50.8263 504.053 50.8263C502.393 50.8263 500.798 51.397 500.798 53.0432C500.798 54.1071 501.535 54.7434 503.129 55.1826C504.361 55.5226 504.966 55.7417 504.966 56.3673C504.966 57.0913 504.042 57.2447 503.426 57.2447C502.91 57.2447 502.448 57.1681 502.051 57.0473L500.985 55.7308H500.963L501.04 57.8152C501.766 58.1445 502.646 58.265 503.47 58.265C505.251 58.265 506.747 57.5193 506.747 56.0163C506.747 54.6008 505.769 54.195 504.163 53.7453ZM455.887 55.2482H457.68L456.855 52.4832L455.887 55.2482ZM455.69 58.0243H453.359V58.0018L453.909 57.3766L456.053 51.7151L455.646 51.0899V51.0682H458.01L460.143 57.3766L460.715 58.0018V58.0243H457.735V58.0018L458.307 57.3766L457.988 56.2905H455.525L455.151 57.3766L455.69 58.0018V58.0243Z" fill="white"/>
</g>
<path d="M758.907 13.2907C761.702 14.6134 763.552 16.2254 763.881 16.4734C763.758 15.7294 763.182 12.216 762.812 10.0667C764.415 11.1827 768.279 13.8694 769.513 14.7374C770.006 13.1667 771.815 8 771.815 8C771.815 8 775.021 13.1667 775.514 14.0347C776.213 13.3734 779.995 9.07468 780.982 8C781.187 10.4387 781.352 13.9934 781.434 14.4894C781.639 14.2414 783.119 12.1747 785.545 10.232C784.476 12.34 783.983 15.2334 783.736 17.5894C781.311 16.8868 778.762 16.5148 776.172 16.5148C771.157 16.5148 766.388 17.8374 762.278 20.1935C761.579 17.9201 760.469 15.1094 758.907 13.2907ZM797.466 57.6832L795.246 55.2031C794.629 61.8579 791.341 67.5619 785.38 71.53L784.435 67.9339C779.337 71.6126 770.664 73.9687 763.182 69.7526C764.128 64.9992 764.909 60.1632 763.182 54.3765C759.03 60.7832 755.372 63.3459 755.372 63.3459C752.576 58.5925 752.823 49.1271 753.645 46.3164L749 47.7631C749 44.5804 751.302 37.843 754.591 34.0403L751.754 33.5856C753.727 29.5349 756.646 26.0628 760.305 23.3762C759.195 25.1948 759.195 29.4109 762.36 31.0229C761.003 28.6669 760.88 25.7322 762.237 24.1615C763.675 22.5908 766.019 23.1695 767.498 24.3682C767.046 23.0455 765.69 21.3921 763.799 21.2681C767.498 19.3254 771.815 18.2921 776.254 18.2921C777.118 18.2921 777.94 18.3748 778.721 18.4161C780.036 18.9121 781.927 20.7721 782.831 21.9708C782.831 21.9708 782.914 20.6068 782.133 18.9948C786.983 20.1935 789.326 22.1775 790.272 23.1282C790.477 25.2362 791.094 26.4762 791.957 28.5015C790.395 26.7655 786.449 23.8722 784.517 23.2108C784.517 23.2108 784.311 25.0295 783.695 25.8975C779.913 23.1695 778.104 22.4668 778.104 22.4668C773.911 22.8801 771.321 24.5335 769.842 25.7735L771.075 26.8482C768.608 27.5922 766.964 29.7829 766.964 29.7829C766.964 29.8656 769.184 30.1549 769.184 30.1549C769.184 30.1549 768.937 32.7589 772.226 34.4123C775.021 35.7763 778.967 34.0816 782.749 35.6109C780.283 32.7589 778.597 31.4362 778.597 31.4362C778.597 31.4362 777.611 31.2296 776.912 31.2296C776.049 31.2296 774.733 31.4362 773.377 30.8576C772.678 30.6096 771.897 30.1136 771.321 29.7416C771.321 29.7416 773.048 27.9229 775.597 27.5509C775.597 27.5509 777.899 28.1709 779.707 29.5349C780.899 28.3362 782.174 28.4189 782.174 28.4189C782.174 28.4189 780.941 29.6175 781.311 30.9816C783.119 32.5936 785.092 34.9083 785.092 34.9083C787.066 33.7923 791.423 34.0403 792.327 35.1149C791.217 33.6269 789.532 32.4282 788.299 31.3949C788.175 30.8162 786.737 28.9149 786.572 28.7082C786.572 28.7082 787.888 29.1629 789.039 30.1549C789.368 29.6589 790.025 29.1629 790.847 28.9562C791.711 29.7002 791.916 30.8162 791.834 31.0229C791.464 31.5189 791.012 31.7256 791.012 31.7256L793.108 34.0403L793.314 32.3456C798.206 39.331 800.878 47.4737 797.466 57.6832ZM788.258 42.5963V39.0003C788.258 39.0003 786.654 38.5043 784.928 37.1403C781.475 37.6363 777.323 41.1497 777.323 41.1497C777.323 41.1497 778.762 43.8364 780.283 46.7711C782.996 47.0604 787.024 43.671 788.258 42.5963ZM791.711 49.1271C791.711 49.1271 791.464 47.6391 790.231 46.275L787.559 46.3577C787.559 46.3577 783.9 49.4577 781.722 49.5404C781.722 49.5404 782.955 51.8551 783.571 53.0125C784.805 52.7645 786.901 51.7724 787.806 50.7804C787.806 50.7804 788.381 52.6404 788.258 54.8311C789.491 54.0458 791.176 52.1444 791.711 49.1271ZM792.821 37.223C791.464 38.339 790.354 39.0416 790.354 39.0416V42.6377C791.341 43.7124 792.286 44.6217 793.026 46.2337C794.383 43.8364 794.054 40.2403 792.821 37.223Z" fill="white"/>
<path fill-rule="evenodd" clip-rule="evenodd" d="M577.836 33.7813C577.693 33.497 577.55 33.3548 577.265 33.3548C576.694 33.2126 576.123 33.2126 575.552 33.0705C573.839 32.7861 571.126 32.2174 568.128 30.9379C564.845 29.6583 560.991 27.5257 559.278 25.3931C558.564 24.6822 558.136 23.8291 558.136 22.9761C558.136 22.9761 557.707 18.9952 564.845 21.1278C564.845 21.27 567.415 28.2365 575.837 29.2318C576.408 29.2318 576.837 29.2318 576.979 28.9474C574.695 22.5496 568.557 18 561.276 18C556.851 18 552.711 19.8483 549.713 22.6917L549.428 22.9761C548.999 23.4026 548 24.6822 548 26.1039C548 27.81 549.999 29.3739 552.568 30.6535C552.568 30.6535 558.278 33.3548 562.133 34.35C562.418 34.35 562.418 34.4922 562.418 34.4922C562.418 34.6344 562.418 34.6344 562.276 34.6344C558.564 35.3453 552.568 38.1887 552.568 38.1887C552.568 38.1887 548 40.1792 548 42.7383C548 44.1601 549.142 45.4396 549.428 46.0083C549.428 46.1505 549.57 46.1505 549.713 46.2927C552.711 49.2783 556.851 50.9844 561.276 51.1266C568.414 51.1266 574.552 46.577 576.979 40.1792C576.979 39.8948 576.408 39.8948 575.837 39.8948C567.272 40.7479 564.845 47.8566 564.702 47.8566C557.565 49.9892 558.136 46.0083 558.136 46.0083C558.136 43.1648 563.703 39.4683 568.128 37.62C568.7 37.3357 572.554 35.914 577.408 35.3453C577.693 35.3453 577.836 35.0609 577.836 34.7766V33.7813Z" fill="#FA5500"/>
<path fill-rule="evenodd" clip-rule="evenodd" d="M677.051 40.6057C676.908 40.1792 676.623 39.8948 676.337 39.4683C676.052 39.1839 675.623 38.8996 675.052 38.7574C674.624 38.6152 673.91 38.4731 673.339 38.4731C672.626 38.4731 672.055 38.6152 671.484 38.7574C670.913 39.0418 670.484 39.3261 670.056 39.7526C669.628 40.1792 669.342 40.6057 669.057 41.1744C668.771 41.7431 668.771 42.4539 668.771 43.1648C668.771 43.8757 668.914 44.5866 669.057 45.1553C669.342 45.724 669.628 46.1505 670.056 46.577C670.484 47.0035 671.055 47.2879 671.626 47.43C672.197 47.5722 672.911 47.7144 673.482 47.7144C674.196 47.7144 674.91 47.7144 675.623 47.43C676.052 47.2879 676.337 47.1457 676.48 47.0035C676.623 46.8613 676.623 46.8613 676.623 46.7192V46.4348C676.623 46.1505 676.623 46.0083 676.48 45.8661L676.052 45.4396C675.909 45.4396 675.766 45.5818 675.338 45.5818C674.91 45.724 674.339 45.8661 673.625 45.8661C672.911 45.8661 672.197 45.724 671.769 45.2974C671.341 45.0131 671.055 44.5866 670.913 44.0179H674.481C675.052 44.0179 675.481 44.0179 675.766 43.8757L676.623 43.4492C676.766 43.307 677.051 43.0226 677.051 42.7383C677.194 42.4539 677.194 42.1696 677.194 41.7431C677.337 41.4587 677.337 41.0322 677.051 40.6057ZM675.052 42.3118C674.91 42.4539 674.624 42.5961 674.196 42.5961H671.055C671.055 42.3118 671.055 42.0274 671.198 41.7431L671.626 40.89C671.769 40.6057 672.055 40.4635 672.34 40.3213C672.626 40.1792 672.911 40.037 673.339 40.037C673.625 40.037 673.91 40.037 674.196 40.1792C674.481 40.3213 674.624 40.4635 674.767 40.6057C674.91 40.7479 675.052 40.89 675.052 41.1744C675.052 41.3166 675.195 41.6009 675.195 41.7431C675.195 42.0274 675.195 42.1696 675.052 42.3118ZM637.651 40.6057C637.508 40.1792 637.222 39.8948 636.937 39.4683C636.651 39.1839 636.223 38.8996 635.652 38.7574C635.224 38.6152 634.51 38.4731 633.939 38.4731C633.225 38.4731 632.654 38.6152 632.083 38.7574C631.512 39.0418 631.084 39.3261 630.656 39.7526C630.227 40.1792 629.942 40.6057 629.656 41.1744C629.371 41.7431 629.371 42.4539 629.371 43.1648C629.371 43.8757 629.514 44.5866 629.656 45.1553C629.942 45.724 630.227 46.1505 630.656 46.577C631.084 47.0035 631.655 47.2879 632.226 47.43C632.797 47.5722 633.511 47.7144 634.082 47.7144C634.795 47.7144 635.509 47.7144 636.223 47.43C636.651 47.2879 636.937 47.1457 637.08 47.0035C637.222 46.8613 637.222 46.8613 637.222 46.7192V46.4348C637.222 46.1505 637.222 46.0083 637.08 45.8661L636.651 45.4396C636.509 45.4396 636.366 45.5818 635.938 45.5818C635.509 45.724 634.938 45.8661 634.224 45.8661C633.511 45.8661 632.797 45.724 632.369 45.2974C631.94 45.0131 631.655 44.5866 631.512 44.0179H635.081C635.652 44.0179 636.08 44.0179 636.366 43.8757L637.222 43.4492C637.365 43.307 637.651 43.0226 637.651 42.7383C637.793 42.4539 637.793 42.1696 637.793 41.7431C637.936 41.4587 637.793 41.0322 637.651 40.6057ZM635.509 42.3118C635.366 42.4539 635.081 42.5961 634.653 42.5961H631.512C631.512 42.3118 631.512 42.0274 631.655 41.7431L632.083 40.89C632.226 40.6057 632.511 40.4635 632.797 40.3213C633.082 40.1792 633.368 40.037 633.796 40.037C634.082 40.037 634.367 40.037 634.653 40.1792C634.938 40.3213 635.081 40.4635 635.224 40.6057C635.366 40.7479 635.509 40.89 635.509 41.1744C635.509 41.3166 635.652 41.6009 635.652 41.7431C635.652 42.0274 635.652 42.1696 635.509 42.3118ZM646.644 40.4635C646.359 40.037 646.073 39.6105 645.645 39.3261C645.217 39.0418 644.788 38.7574 644.217 38.7574C643.646 38.6152 642.933 38.6152 642.361 38.6152H641.219C640.934 38.6152 640.506 38.7574 640.363 38.8996C640.077 39.0418 639.935 39.1839 639.792 39.3261C639.649 39.4683 639.506 39.7526 639.506 39.8948C639.506 40.1792 639.506 40.3213 639.649 40.6057L640.077 41.0322C640.22 41.0322 640.22 40.89 640.363 40.89C640.506 40.7479 640.648 40.7479 640.791 40.6057C640.934 40.4635 641.219 40.4635 641.505 40.3213C641.79 40.3213 642.076 40.1792 642.504 40.1792C643.218 40.1792 643.932 40.3213 644.217 40.6057C644.646 40.89 644.788 41.3166 644.788 41.8852V42.1696H642.933C642.361 42.1696 641.933 42.1696 641.505 42.3118H641.219C640.506 42.4539 640.077 42.7383 639.792 43.1648C638.935 43.5913 638.935 44.0179 638.935 44.3022V44.8709C638.935 45.1553 639.078 45.4396 639.221 45.724C639.364 46.1505 639.649 46.4348 639.935 46.8613C640.22 47.1457 640.648 47.43 641.219 47.5722C641.648 47.7144 642.504 47.8566 643.075 47.8566C644.075 47.8566 644.788 47.7144 645.502 47.7144C645.93 47.7144 646.359 47.5722 646.644 47.5722H646.93V42.4539C646.93 41.6009 646.787 41.0322 646.644 40.4635ZM644.646 46.1505C644.503 46.1505 644.217 46.2927 644.075 46.2927H642.79C641.79 46.1505 641.362 45.724 641.219 45.2974C641.219 45.1553 641.077 44.7287 641.219 44.3022C641.219 44.3022 641.219 44.16 641.362 44.16C641.505 44.0179 641.505 43.8757 641.79 43.8757C641.933 43.8757 642.076 43.7335 642.076 43.7335C642.219 43.7335 642.219 43.7335 642.361 43.5913C642.504 43.5913 642.79 43.4492 642.933 43.4492H643.361C643.932 43.4492 644.36 43.5913 644.646 43.5913H644.788V46.1505H644.646ZM628.8 45.724C628.514 45.4396 627.943 45.4396 627.943 45.4396H623.375V36.0561C623.375 35.7718 623.232 35.7718 623.09 35.7718H622.376C621.519 35.7718 620.948 36.1983 620.948 37.0513V47.5722H629.085V46.7192C629.085 46.2927 628.943 46.0083 628.8 45.724ZM601.248 38.7574C600.82 38.7574 600.534 38.8996 600.391 39.0418C600.106 39.1839 600.106 39.4683 600.106 39.7526V45.724H598.964C598.107 45.724 597.394 45.5818 596.965 45.1553C596.537 44.7287 596.394 44.16 596.394 43.4492V38.7574C596.394 38.7574 596.252 38.7574 595.966 38.6152C595.681 38.6152 595.538 38.4731 595.252 38.4731C594.824 38.4731 594.538 38.6152 594.396 38.7574C594.11 38.8996 594.11 39.1839 594.11 39.4683V43.5913C594.11 44.8709 594.538 45.8661 595.395 46.4348C596.252 47.1457 597.536 47.43 599.249 47.43H601.391C601.676 47.43 601.962 47.43 602.105 47.2879H602.39V38.7574C602.39 38.7574 602.247 38.7574 601.962 38.6152C601.819 38.7574 601.533 38.7574 601.248 38.7574ZM609.671 39.0418C609.528 38.8996 609.385 38.7574 609.1 38.7574C608.814 38.6152 608.671 38.6152 608.386 38.6152H607.529C606.958 38.6152 606.53 38.6152 606.102 38.7574C605.673 38.8996 605.245 38.8996 604.96 39.0418C604.674 39.1839 604.389 39.3261 604.103 39.3261C603.96 39.4683 603.818 39.4683 603.818 39.4683V47.43H606.102V40.7479C606.244 40.7479 606.387 40.6057 606.673 40.4635C606.958 40.3213 607.386 40.3213 607.815 40.3213H608.386C608.528 40.3213 608.814 40.3213 608.957 40.4635C609.1 40.4635 609.242 40.6057 609.385 40.6057C609.528 40.6057 609.528 40.6057 609.528 40.7479C609.671 40.6057 609.671 40.4635 609.813 40.3213C609.956 40.1792 609.956 39.8948 609.956 39.6105C609.956 39.3261 609.813 39.1839 609.671 39.0418ZM618.379 39.7526C617.95 39.3261 617.522 39.0418 616.808 38.7574C616.237 38.4731 615.524 38.3309 614.81 38.3309C614.096 38.3309 613.382 38.4731 612.811 38.7574C612.24 39.0418 611.669 39.3261 611.241 39.7526C610.813 40.1792 610.527 40.6057 610.242 41.1744C609.956 41.7431 609.956 42.3118 609.956 43.0226C609.956 43.7335 610.099 44.3022 610.242 44.8709C610.527 45.4396 610.813 45.8661 611.241 46.2927C611.669 46.7192 612.24 47.0035 612.811 47.2879C613.382 47.5722 614.096 47.7144 614.81 47.7144C615.524 47.7144 616.237 47.5722 616.808 47.2879C617.379 47.0035 617.95 46.7192 618.379 46.2927C618.807 45.8661 619.092 45.4396 619.378 44.8709C619.663 44.3022 619.663 43.7335 619.663 43.0226C619.663 42.3118 619.521 41.7431 619.378 41.1744C619.235 40.7479 618.807 40.1792 618.379 39.7526ZM617.237 44.3022C617.094 44.5866 616.951 45.0131 616.808 45.1553C616.666 45.4396 616.38 45.5818 616.095 45.724C615.809 45.8661 615.381 46.0083 615.095 46.0083C614.667 46.0083 614.381 45.8661 614.096 45.724C613.81 45.5818 613.525 45.4396 613.382 45.1553C613.239 44.8709 612.954 44.5866 612.954 44.3022C612.811 44.0179 612.811 43.5913 612.811 43.1648C612.811 42.7383 612.811 42.4539 612.954 42.0274C613.097 41.7431 613.239 41.3166 613.382 41.1744C613.525 40.89 613.81 40.7479 614.096 40.6057C614.381 40.4635 614.81 40.3213 615.095 40.3213C615.524 40.3213 615.809 40.4635 616.095 40.6057C616.38 40.7479 616.666 40.89 616.808 41.1744C616.951 41.4587 617.237 41.7431 617.237 42.0274C617.379 42.3118 617.379 42.7383 617.379 43.1648C617.379 43.4492 617.379 43.8757 617.237 44.3022ZM666.487 38.7574C666.059 38.7574 665.773 38.8996 665.631 39.0418C665.488 39.1839 665.345 39.4683 665.345 39.7526V45.724H664.203C663.347 45.724 662.633 45.5818 662.347 45.1553C661.919 44.7287 661.776 44.16 661.776 43.4492V38.7574C661.633 38.7574 661.633 38.7574 661.348 38.6152C661.062 38.6152 660.92 38.4731 660.634 38.4731C660.206 38.4731 659.92 38.6152 659.778 38.7574C659.635 38.8996 659.492 39.1839 659.492 39.4683V43.5913C659.492 44.8709 659.92 45.8661 660.634 46.4348C661.491 47.1457 662.775 47.43 664.489 47.43H666.63C666.915 47.43 667.201 47.43 667.344 47.2879H667.629V38.7574C667.486 38.7574 667.344 38.7574 667.201 38.6152C667.058 38.8996 666.773 38.7574 666.487 38.7574ZM584.831 37.3357V46.2927C584.831 47.1457 585.259 47.5722 586.259 47.5722H593.254C593.254 46.4348 593.111 45.4396 591.398 45.4396H587.401V42.7383H590.97C590.97 42.7383 591.112 42.7383 591.112 42.5961L591.541 40.7479C591.541 40.7479 591.541 40.6057 591.398 40.6057H587.401V37.7622H591.826C592.683 37.7622 593.111 37.3357 593.111 36.3405V35.6296H586.116C585.545 35.6296 584.831 36.3405 584.831 37.3357ZM657.636 38.7574H657.208C655.923 38.6152 654.781 38.4731 654.067 38.4731H652.497C652.069 38.4731 651.641 38.6152 651.212 38.7574C650.641 39.0418 650.07 39.3261 649.642 39.7526C649.214 40.1792 648.928 40.7479 648.643 41.3166C648.643 41.4587 648.643 41.4587 648.5 41.6009C648.357 42.1696 648.214 42.7383 648.214 43.307C648.214 44.0179 648.357 44.7287 648.5 45.1553C648.643 45.724 649.071 46.1505 649.356 46.577C649.785 47.0035 650.213 47.2879 650.641 47.43C651.212 47.5722 651.783 47.7144 652.354 47.7144C652.64 47.7144 653.068 47.7144 653.354 47.5722C653.639 47.43 653.925 47.43 654.067 47.2879C654.21 47.1457 654.496 47.1457 654.638 47.0035C654.781 46.8613 654.924 46.8613 654.924 46.7192L655.352 46.2927V47.1457C655.352 47.7144 655.209 48.1409 655.067 48.4253C654.924 48.8518 654.638 49.1361 654.496 49.2783C654.21 49.5627 653.925 49.7048 653.496 49.847C652.925 49.9892 651.926 49.9892 651.212 49.847C650.927 49.847 650.499 49.7048 650.356 49.7048C650.213 49.7048 649.928 49.5627 649.785 49.5627C649.785 49.5627 649.642 49.5627 649.642 49.4205C649.499 49.4205 649.356 49.5627 649.214 49.7048C649.071 49.847 648.928 49.9892 648.928 50.2735V50.5579C648.928 50.5579 648.928 50.7001 649.071 50.8422C649.071 50.9844 649.214 51.1266 649.356 51.1266C649.642 51.4109 650.213 51.5531 651.07 51.6953C651.355 51.6953 651.641 51.6953 652.069 51.8374C653.639 51.9796 655.209 51.5531 656.352 50.4157L656.494 50.2735C656.923 49.847 657.208 49.2783 657.494 48.7096C657.779 47.9987 657.922 47.1457 657.922 46.2927V38.6152C657.779 38.8996 657.779 38.8996 657.636 38.7574ZM652.925 46.0083C652.212 46.0083 651.641 45.8661 651.212 45.4396C650.784 45.0131 650.499 44.3022 650.499 43.5913C650.499 42.0274 651.355 40.3213 654.781 40.7479C654.924 40.7479 655.209 40.7479 655.352 40.89V43.307C655.495 44.0179 654.924 46.0083 652.925 46.0083Z" fill="white"/>
<path fill-rule="evenodd" clip-rule="evenodd" d="M586.83 40.6057H591.541C591.969 40.6057 592.254 40.7478 592.397 40.89C592.54 41.0322 592.683 41.3165 592.683 41.6009C592.683 41.8852 592.683 42.0274 592.54 42.3118C592.397 42.4539 592.397 42.5961 592.397 42.7383H586.83M640.648 31.933V27.9522H636.651V31.933H634.51V22.5495H636.651V26.2461H640.648V22.5495H642.79V31.933H640.648ZM593.682 22.5495V28.3787C593.682 29.0896 593.825 29.6583 593.967 30.0848C594.11 30.5113 594.396 30.9378 594.824 31.2222C595.109 31.5065 595.538 31.7909 596.109 31.933C596.537 32.0752 597.108 32.0752 597.822 32.0752C598.393 32.0752 598.964 32.0752 599.535 31.933C599.963 31.7909 600.391 31.6487 600.677 31.3643C600.962 31.08 601.248 30.6535 601.391 30.227C601.533 29.8004 601.676 29.2317 601.676 28.5209V22.5495H599.678V28.3787C599.678 28.9474 599.535 29.5161 599.249 29.8004C598.964 30.227 598.536 30.3691 597.822 30.3691C597.251 30.3691 596.68 30.227 596.394 29.8004C596.109 29.5161 595.966 28.9474 595.966 28.3787V22.5495H593.682ZM587.258 31.933V24.2556H584.688V22.5495H591.969V23.4026C591.969 23.9713 591.541 24.2556 591.112 24.2556H589.399V31.933H587.258ZM622.376 31.933H624.517V22.5495H622.376V31.933ZM615.095 27.5256L617.95 31.2222C618.236 31.6487 618.807 31.933 619.378 31.933H621.091L617.094 26.8148V26.5304L620.377 22.2652H618.093L615.238 26.5304L615.095 26.6726V22.5495H612.954V31.933H615.095V27.5256ZM610.099 31.933C609.385 31.933 608.814 31.6487 608.528 31.08L606.815 28.2365H605.673V31.933H603.532V22.5495H607.386C608.386 22.5495 609.1 22.8339 609.671 23.2604C610.242 23.8291 610.527 24.54 610.527 25.393C610.527 25.8196 610.384 26.2461 610.242 26.6726C609.956 27.0991 609.671 27.5256 609.099 27.6678H608.957L611.669 31.7909H610.099V31.933ZM605.673 26.8148H606.958C607.386 26.8148 607.815 26.6726 607.957 26.3883C608.243 26.1039 608.243 25.8196 608.243 25.393C608.243 24.9665 608.1 24.6822 607.957 24.3978C607.672 24.1135 607.386 23.9713 606.958 23.9713H605.673V26.8148ZM626.373 31.5065V29.6583C627.087 29.9426 627.943 30.227 628.942 30.227C629.942 30.227 630.513 29.8004 630.513 29.2317C630.513 28.3787 629.799 28.3787 628.371 27.6678C627.372 27.2413 626.373 26.5304 626.373 24.9665C626.373 23.1182 627.8 22.2652 629.656 22.2652C630.656 22.2652 631.512 22.5495 632.083 22.6917V24.3978C631.655 24.1135 630.656 23.8291 629.799 23.8291C628.8 23.8291 628.371 24.1135 628.371 24.8243C628.371 25.393 628.942 25.6774 629.942 25.9617C631.227 26.5304 632.654 26.8148 632.654 28.9474C632.654 30.7957 631.227 31.7909 629.228 31.7909C628.086 32.0752 627.087 31.7909 626.373 31.5065ZM693.753 31.933V22.5495H699.606V23.4026C699.606 23.9713 699.178 24.2556 698.75 24.2556H695.895V26.2461H699.035V27.81H695.895V30.0848H699.606V31.7909H693.753V31.933ZM672.197 31.933V22.5495H673.197C673.768 22.5495 674.339 23.1182 674.339 23.6869V30.227H677.765V31.933H672.197ZM658.636 31.933H660.777V22.5495H658.636V31.933ZM669.342 31.933C668.628 31.933 668.057 31.6487 667.772 31.08L666.059 28.2365H664.917V31.933H662.775V22.5495H666.63C667.629 22.5495 668.343 22.8339 668.914 23.2604C669.485 23.8291 669.77 24.54 669.77 25.393C669.77 25.8196 669.628 26.2461 669.485 26.6726C669.199 27.0991 668.914 27.5256 668.343 27.6678H668.2L670.913 31.7909H669.342V31.933ZM665.06 26.8148H666.344C666.773 26.8148 667.201 26.6726 667.344 26.3883C667.629 26.1039 667.629 25.8196 667.629 25.393C667.629 24.9665 667.486 24.6822 667.344 24.3978C667.058 24.1135 666.773 23.9713 666.344 23.9713H665.06V26.8148ZM653.782 22.5495H651.212L647.643 31.933H649.214C649.642 31.933 649.928 31.6487 650.07 31.3643L650.499 30.227H654.353L654.924 31.933H657.351L653.782 22.5495ZM651.212 28.5209L652.069 26.1039C652.212 25.5352 652.497 24.9665 652.64 24.54C652.783 24.9665 652.925 25.5352 653.068 26.1039L653.925 28.5209H651.212ZM701.319 31.5065V29.6583C702.033 29.9426 702.89 30.227 703.889 30.227C704.888 30.227 705.459 29.8004 705.459 29.2317C705.459 28.3787 704.746 28.3787 703.318 27.6678C702.319 27.2413 701.319 26.5304 701.319 24.9665C701.319 23.1182 702.747 22.2652 704.603 22.2652C705.602 22.2652 706.459 22.5495 707.03 22.6917V24.3978C706.601 24.1135 705.602 23.8291 704.746 23.8291C703.746 23.8291 703.318 24.1135 703.318 24.8243C703.318 25.393 703.889 25.6774 704.888 25.9617C706.173 26.5304 707.601 26.8148 707.601 28.9474C707.601 30.7957 706.173 31.7909 704.174 31.7909C703.032 32.0752 702.176 31.7909 701.319 31.5065ZM684.617 22.5495C685.331 22.5495 685.902 22.8339 686.187 23.4026L688.757 27.6678C689.042 28.0943 689.328 28.8052 689.613 29.2317V22.5495H691.469V31.933H689.042L685.902 26.8148C685.616 26.3883 685.331 25.8196 685.045 25.393V31.933H683.189V22.5495H684.617ZM679.192 31.933H681.334V22.5495H679.192V31.933Z" fill="white"/>
<g clip-path="url(#clip3_36_89)">
<path d="M897.159 23.5569C898.96 23.5609 900.76 23.5477 902.562 23.5635C902.553 28.887 902.555 34.2103 902.559 39.5338C904.728 39.5324 906.896 39.5352 909.065 39.5324V44.2809C905.098 44.2835 901.132 44.2757 897.165 44.2849C897.151 37.3756 897.164 30.4663 897.159 23.5569Z" fill="white"/>
<path d="M930.555 23.553C932.354 23.5609 934.151 23.5557 935.949 23.5557C935.95 28.8817 935.949 34.2077 935.95 39.5324C938.12 39.539 940.29 39.5232 942.461 39.5402C942.452 41.1209 942.458 42.7002 942.458 44.2796C938.489 44.281 934.52 44.2822 930.551 44.2796C930.556 37.3704 930.547 30.4623 930.555 23.553Z" fill="white"/>
<path d="M916.415 27.4831C917.72 27.2316 919.116 27.2683 920.36 27.7724C921.226 28.1221 921.958 28.7206 922.664 29.3191C922.674 28.7612 922.665 28.2034 922.676 27.6454C924.331 27.6546 925.987 27.6468 927.642 27.6494C927.636 33.185 927.652 38.7218 927.635 44.2587C925.949 44.3125 924.259 44.2666 922.571 44.2796C922.571 43.7637 922.574 43.2477 922.57 42.733C921.242 43.9456 919.48 44.7013 917.669 44.6778C915.562 44.7157 913.399 43.9104 911.995 42.3035C910.529 40.6547 909.926 38.3997 909.913 36.2298C909.868 34.3283 910.42 32.4124 911.496 30.8409C912.63 29.154 914.408 27.8772 916.415 27.4831ZM917.991 32.1111C916.821 32.3455 915.809 33.1928 915.35 34.2915C914.599 36.0974 915.118 38.4979 916.814 39.5861C918.374 40.5735 920.604 40.1767 921.811 38.8043C923.291 37.1922 923.117 34.3766 921.466 32.9479C920.536 32.1203 919.193 31.836 917.991 32.1111Z" fill="white"/>
<path d="M954.75 28.8045C956.26 27.5525 958.323 27.1151 960.237 27.4242C961.669 27.6166 962.919 28.4483 963.905 29.4697C963.916 28.8633 963.91 28.2571 963.91 27.6507C965.514 27.6493 967.117 27.6441 968.721 27.6533C968.717 32.6074 968.721 37.5603 968.719 42.5144C968.694 44.3805 968.056 46.2794 966.744 47.6334C965.225 49.2298 963.013 49.988 960.85 50.0915C958.628 50.2002 956.289 49.7235 954.489 48.355C953.187 47.3912 952.296 45.8903 952.096 44.2796C953.961 44.2901 955.829 44.2639 957.695 44.2914C958.027 44.6751 958.314 45.1322 958.787 45.36C959.464 45.6939 960.253 45.6651 960.986 45.601C961.93 45.4948 962.94 45.0784 963.41 44.2023C963.82 43.4808 963.642 42.6269 963.689 41.8386C962.313 42.9871 960.564 43.7964 958.744 43.727C956.995 43.7035 955.263 42.9727 954.054 41.7024C952.411 40.0327 951.701 37.6204 951.779 35.3143C951.846 32.8733 952.818 30.3642 954.75 28.8045ZM959.465 31.7209C958.208 31.916 957.219 32.9505 956.881 34.1488C956.463 35.5933 956.63 37.3259 957.686 38.4626C958.98 39.8979 961.451 39.7747 962.771 38.4391C964.256 37.013 964.3 34.4449 963.027 32.8721C962.18 31.8387 960.737 31.5218 959.465 31.7209Z" fill="white"/>
<path d="M974.519 28.6957C976.198 27.5079 978.376 27.0574 980.39 27.4921C981.612 27.754 982.653 28.4953 983.573 29.3111C983.565 28.7585 983.566 28.2045 983.566 27.6519C985.234 27.6519 986.903 27.6388 988.571 27.6585V44.2757C986.881 44.2861 985.189 44.2809 983.499 44.2783C983.502 43.761 983.502 43.2437 983.498 42.7278C982.937 43.2057 982.343 43.6576 981.67 43.9705C979.91 44.8505 977.811 44.8636 975.957 44.2809C974.283 43.7479 972.845 42.5484 971.999 41.0096C970.993 39.2115 970.713 37.0874 970.882 35.0562C971.133 32.555 972.446 30.144 974.519 28.6957ZM978.842 32.1294C977.476 32.4214 976.366 33.5699 976.062 34.9266C975.676 36.5858 976.207 38.5515 977.659 39.5389C979.308 40.6403 981.752 40.1491 982.926 38.5737C984.167 36.963 983.968 34.4251 982.484 33.0329C981.529 32.1333 980.105 31.8111 978.842 32.1294Z" fill="white"/>
<path d="M946.387 20.4965C947.867 20.0683 949.586 20.9378 950.066 22.415C950.47 23.5636 950.113 24.9425 949.185 25.7348C948.298 26.5323 946.93 26.7405 945.853 26.2246C944.664 25.6798 943.975 24.2982 944.188 23.0174C944.333 21.8375 945.236 20.7963 946.387 20.4965ZM944.644 27.6533C946.314 27.6428 947.982 27.6533 949.651 27.648C949.653 33.1927 949.653 38.7375 949.651 44.2822C947.982 44.2782 946.314 44.2874 944.644 44.2769C944.651 38.7362 944.65 33.1941 944.644 27.6533Z" fill="white"/>
<path d="M860.634 31.2154C861.529 30.021 862.769 29.0899 864.19 28.6224C863.992 28.8345 863.791 29.0428 863.596 29.2563C864.432 29.1345 865.289 29.2497 866.072 29.5614C866.157 30.3079 866.23 31.0557 866.336 31.7982C866.523 31.0674 866.538 30.3039 866.641 29.5588C867.429 29.2393 868.29 29.1437 869.132 29.2524C868.917 29.0363 868.699 28.8254 868.481 28.6147C869.899 29.0782 871.178 29.9818 872.039 31.2076C871.79 31.0819 871.54 30.9602 871.289 30.841C871.608 31.5914 871.848 32.4059 871.752 33.2296C871.106 33.6304 870.338 33.8071 869.717 34.2538C870.452 34.1228 871.182 33.9578 871.914 33.8177C872.472 34.458 872.817 35.2516 872.99 36.0767C873.129 35.8253 873.263 35.5725 873.389 35.3146C873.397 36.8153 872.872 38.2677 872.038 39.5013C872.081 39.2158 872.12 38.9304 872.155 38.6449C871.535 39.1909 870.817 39.6323 870.012 39.8406C869.472 39.2971 868.995 38.6934 868.437 38.1695C868.694 38.8963 869.233 39.4948 869.483 40.2177C869.061 40.9274 868.41 41.4578 867.713 41.8808C867.979 41.9345 868.248 41.9843 868.515 42.0405C867.821 42.2291 867.11 42.3469 866.391 42.3784C865.635 42.3653 864.892 42.2121 864.157 42.0497C864.433 42.0039 864.702 41.9319 864.973 41.8651C864.262 41.4447 863.631 40.8816 863.194 40.1745C863.56 39.5001 863.97 38.8492 864.307 38.1603C863.72 38.6593 863.246 39.2774 862.719 39.8366C861.895 39.6611 861.198 39.1752 860.546 38.6685C860.591 38.9436 860.642 39.2185 860.698 39.4922C859.819 38.2939 859.319 36.8194 859.318 35.3317C859.457 35.5766 859.583 35.828 859.72 36.0756C859.891 35.2453 860.235 34.4464 860.801 33.81C861.539 33.9553 862.271 34.1426 863.016 34.2434C862.361 33.8479 861.637 33.586 860.951 33.2547C860.881 32.4206 861.088 31.5955 861.42 30.836C861.156 30.9587 860.897 31.0896 860.634 31.2154ZM863.224 34.2915C863.608 35.5382 864.017 36.7757 864.428 38.0133C865.716 38.0081 867.004 38.0133 868.292 38.0107C868.69 36.7745 869.092 35.5396 869.497 34.3046C868.462 33.528 867.401 32.7868 866.364 32.0141C865.31 32.7619 864.271 33.5346 863.224 34.2915Z" fill="white"/>
<path d="M864.128 12H864.689C865.232 14.7501 865.714 17.5119 866.243 20.2647C866.343 20.7126 866.4 21.1697 866.407 21.6293C863.34 22.1269 860.523 24.0101 858.965 26.7117C858.867 26.9881 858.559 27.0784 858.325 26.8964C855.773 25.4283 853.236 23.9315 850.685 22.4596C850.531 22.3365 850.228 22.2317 850.342 21.9816C850.478 21.5874 850.74 21.2534 850.96 20.9038C852.53 18.4759 854.637 16.4028 857.073 14.851C859.218 13.4614 861.641 12.5526 864.128 12Z" fill="#901480"/>
<path d="M868.159 14.3323C873.181 13.853 878.357 15.3236 882.366 18.392C882.75 18.7037 883.181 18.9735 883.499 19.3572C883.667 19.5628 883.432 19.7658 883.317 19.9229C881.556 21.9527 879.8 23.9865 878.043 26.0177C877.817 26.2679 877.623 26.552 877.359 26.7628C877.103 26.9029 876.916 26.6541 876.727 26.5205C874.744 24.8482 872.109 23.9892 869.524 24.1241C869.086 24.1385 868.656 24.2419 868.217 24.2314C868.079 24.0913 868.034 23.9001 868.007 23.7129C867.631 21.1134 867.242 18.5165 866.859 15.9183C866.802 15.4887 866.697 15.0592 866.721 14.6244C867.139 14.3455 867.681 14.4149 868.159 14.3323Z" fill="#FF0000"/>
<path d="M865.284 27.6887C867.362 27.3783 869.554 27.9939 871.185 29.3178C872.737 30.5619 873.784 32.432 873.998 34.4146C874.209 36.1263 873.822 37.9073 872.91 39.3714C871.892 41.0332 870.222 42.2813 868.338 42.7762C866.657 43.2188 864.821 43.0878 863.232 42.3741C861.504 41.6094 860.078 40.1885 859.312 38.4585C858.429 36.4797 858.433 34.1224 859.331 32.1477C860.38 29.7722 862.709 28.0226 865.284 27.6887ZM860.634 31.2153C860.897 31.0896 861.156 30.9587 861.42 30.8355C861.088 31.5951 860.881 32.4201 860.95 33.2543C861.637 33.5856 862.361 33.8475 863.016 34.243C862.27 34.1421 861.539 33.9549 860.801 33.8095C860.235 34.446 859.891 35.2448 859.719 36.0751C859.583 35.8277 859.456 35.5761 859.318 35.3313C859.319 36.819 859.819 38.2936 860.698 39.4918C860.642 39.2181 860.591 38.943 860.546 38.6681C861.198 39.1749 861.895 39.6607 862.719 39.8362C863.246 39.2769 863.72 38.6589 864.307 38.1599C863.97 38.8487 863.56 39.4995 863.194 40.1739C863.631 40.8811 864.261 41.4443 864.973 41.8647C864.702 41.9315 864.433 42.0035 864.157 42.0493C864.892 42.2116 865.635 42.3649 866.391 42.378C867.109 42.3465 867.821 42.2287 868.514 42.0401C868.248 41.9837 867.979 41.934 867.712 41.8803C868.41 41.4573 869.061 40.927 869.482 40.2172C869.233 39.4943 868.694 38.8959 868.437 38.1691C868.994 38.693 869.472 39.2966 870.012 39.8401C870.817 39.6319 871.535 39.1906 872.155 38.6444C872.12 38.93 872.08 39.2154 872.037 39.5009C872.872 38.2672 873.397 36.8149 873.389 35.3142C873.263 35.5722 873.128 35.8249 872.99 36.0763C872.817 35.2512 872.472 34.4576 871.914 33.8173C871.182 33.9574 870.452 34.1224 869.717 34.2533C870.338 33.8068 871.106 33.6299 871.752 33.2292C871.848 32.4055 871.608 31.591 871.289 30.8405C871.54 30.9597 871.79 31.0815 872.039 31.2072C871.178 29.9814 869.898 29.0778 868.48 28.6143C868.699 28.8251 868.917 29.0359 869.132 29.252C868.289 29.1433 867.429 29.2389 866.641 29.5584C866.538 30.3035 866.523 31.067 866.336 31.7978C866.23 31.0553 866.157 30.3075 866.072 29.561C865.288 29.2494 864.431 29.1341 863.596 29.2558C863.79 29.0424 863.992 28.8342 864.189 28.622C862.769 29.0899 861.529 30.021 860.634 31.2153Z" fill="black"/>
<path d="M863.224 34.2915C864.27 33.5346 865.309 32.7619 866.364 32.0142C867.401 32.7869 868.462 33.528 869.497 34.3046C869.091 35.5395 868.69 36.7745 868.292 38.0108C867.003 38.0134 865.716 38.0082 864.427 38.0134C864.017 36.7758 863.607 35.5382 863.224 34.2915Z" fill="black"/>
<path d="M846.953 22.2591C847.11 22.161 847.271 22.3103 847.413 22.3653C850.018 23.7705 852.626 25.1665 855.232 26.5677C855.495 26.6698 855.6 26.971 855.413 27.1963C853.975 29.8508 853.796 33.1312 854.905 35.9364C855.06 36.1748 854.828 36.3947 854.606 36.4642C852.121 37.4267 849.635 38.3814 847.149 39.3426C846.762 39.4853 846.386 39.67 845.982 39.763C845.858 39.708 845.769 39.6203 845.715 39.4985C843.567 34.0624 843.952 27.7045 846.702 22.5514C846.755 22.4229 846.839 22.326 846.953 22.2591Z" fill="#004AD0"/>
<path d="M882.797 22.8065C883.109 22.6193 883.373 23.016 883.582 23.1994C887.688 27.2368 889.942 33.0788 889.582 38.8292C889.537 38.8881 889.448 39.0033 889.404 39.0609C886.442 38.9654 883.48 38.7728 880.518 38.6536C880.273 38.6209 879.945 38.6759 879.777 38.4493C879.735 38.0171 879.774 37.5837 879.753 37.1515C879.624 34.4813 878.419 31.8805 876.463 30.0602C876.212 29.8794 876.341 29.5495 876.536 29.3858C878.632 27.2015 880.685 24.9726 882.797 22.8065Z" fill="#FF7D00"/>
<path d="M852.235 38.6616C852.444 38.5922 852.684 38.4337 852.9 38.5661C853.003 38.7009 853.072 38.8581 853.148 39.0113C854.216 41.3725 856.219 43.2884 858.605 44.285C859 44.4618 859.43 44.5495 859.812 44.7552C859.888 44.9673 859.817 45.19 859.759 45.3969C858.853 48.2779 857.962 51.1629 857.062 54.0453C856.901 54.078 856.743 54.0767 856.585 54.0413C851.092 52.3623 846.427 48.2044 844.098 42.9517C844.008 42.7265 844.022 42.4776 844 42.2406C846.738 41.0332 849.495 39.865 852.235 38.6616Z" fill="#0090FF"/>
<path d="M876.879 39.772C877.109 39.6372 877.379 39.6948 877.629 39.7052C880.526 39.9462 883.428 40.1517 886.324 40.3941C886.553 40.3758 886.684 40.6102 886.644 40.8157C886.241 46.6066 883.187 52.1369 878.531 55.589C878.368 55.6964 878.189 55.771 878.015 55.8549C876.238 53.4937 874.523 51.0868 872.76 48.7151C872.601 48.4911 872.416 48.2738 872.346 48.0039C872.389 47.835 872.554 47.7485 872.673 47.6399C874.781 46.0763 876.234 43.6745 876.688 41.0934C876.772 40.656 876.781 40.2068 876.879 39.772Z" fill="#FFE500"/>
<path d="M869.251 46.4221C869.438 46.2467 869.701 46.3082 869.824 46.5243C871.395 48.8435 872.945 51.1785 874.513 53.5016C874.683 53.7544 874.863 54.0045 874.99 54.286C874.866 54.6226 874.509 54.7614 874.235 54.9513C871.555 56.6366 868.479 57.6857 865.328 57.9803C864.027 57.9594 862.723 57.9436 861.424 57.9999C860.295 57.8506 859.165 57.6765 858.066 57.37C857.881 57.336 857.753 57.1959 857.616 57.0833C858.463 54.1001 859.263 51.1024 860.101 48.1166C860.136 47.8638 860.401 47.7199 860.628 47.8377C863.529 48.6628 866.756 48.1035 869.251 46.4221Z" fill="#00AA00"/>
</g>
<defs>
<clipPath id="clip0_36_89">
<rect width="61.5036" height="70.2898" fill="white" transform="translate(218)"/>
</clipPath>
<clipPath id="clip1_36_89">
<rect width="68.7083" height="40.4166" fill="white" transform="translate(324 14)"/>
</clipPath>
<clipPath id="clip2_36_89">
<rect width="68.747" height="65.3175" fill="white" transform="translate(438 3)"/>
</clipPath>
<clipPath id="clip3_36_89">
<rect width="144.571" height="46" fill="white" transform="translate(844 12)"/>
</clipPath>
</defs>
</svg>
