<svg width="136" height="40" viewBox="0 0 136 40" fill="none" xmlns="http://www.w3.org/2000/svg">
<g clip-path="url(#clip0_3_71)">
<mask id="mask0_3_71" style="mask-type:alpha" maskUnits="userSpaceOnUse" x="82" y="2" width="21" height="22">
<ellipse cx="92.5265" cy="12.8535" rx="10.312" ry="10.2828" fill="#D9D9D9"/>
</mask>
<g mask="url(#mask0_3_71)">
<ellipse cx="92.5265" cy="12.8535" rx="10.312" ry="10.2828" fill="white"/>
<path d="M92.386 23.5365L98.0049 22.0352L96.0252 18.7427L92.6034 6.00886L92.667 2.17042L87.0481 3.67171L89.0278 6.96423L92.4495 19.6981L92.386 23.5365Z" fill="#18894D"/>
<path d="M83.1782 18.0737L87.2914 22.1753L89.1611 18.8194L98.5094 9.49759L101.875 7.63322L97.7616 3.53162L95.8919 6.88748L86.5436 16.2093L83.1782 18.0737Z" fill="#18894D"/>
<path d="M103.24 12.7134L101.734 18.3163L98.4325 16.3422L85.6624 12.9302L81.8131 12.9935L83.3186 7.39062L86.6205 9.36469L99.3906 12.7767L103.24 12.7134Z" fill="#18894D"/>
<ellipse cx="92.5265" cy="12.8535" rx="8.19673" ry="8.17349" fill="#18894D"/>
<ellipse cx="92.5265" cy="12.8535" rx="7.13909" ry="7.11884" fill="white"/>
<path d="M95.9452 11.854C96.0935 10.8633 95.3376 10.3306 94.3038 9.97535L94.6395 8.63332L93.8206 8.42976L93.4935 9.7365C93.2784 9.68304 93.0574 9.63227 92.8378 9.58253L93.1661 8.26716L92.348 8.0636L92.0132 9.40511L90.3619 8.99695L90.144 9.86962C90.144 9.86962 90.7515 10.0086 90.7387 10.0172C91.0702 10.0998 91.1304 10.3187 91.1202 10.4924L90.2015 14.1689C90.1609 14.2694 90.0581 14.4201 89.8263 14.3625C89.8345 14.3744 89.2312 14.2136 89.2312 14.2136L88.8247 15.1501L90.4737 15.5656L90.1348 16.9232L90.9525 17.1268L91.2883 15.7837C91.5121 15.8442 91.7285 15.9 91.9405 15.9526L91.6061 17.2894L92.4249 17.4929L92.7638 16.1379C94.16 16.4015 95.2099 16.2951 95.6512 15.036C96.0073 14.0215 95.6338 13.4363 94.8992 13.0545C95.4341 12.9309 95.837 12.58 95.9445 11.8546L95.9452 11.854ZM94.074 14.4718C93.8203 15.4862 92.1091 14.938 91.5538 14.8003L92.0034 13.0018C92.5584 13.14 94.3379 13.4137 94.0743 14.4716L94.074 14.4718ZM94.3279 11.8397C94.0971 12.7629 92.6722 12.2938 92.2098 12.1787L92.6169 10.5472C93.0795 10.6624 94.568 10.877 94.3273 11.8396" fill="#F59424"/>
</g>
</g>
<path d="M0.637411 23.1362C0.42 23.1362 0.252 23.0672 0.133412 22.9293C0.0148235 22.7913 -0.0247059 22.6139 0.0148235 22.3971L4.10612 3.21077C4.14564 2.99398 4.25435 2.8166 4.43223 2.67864C4.61012 2.52097 4.80776 2.44214 5.02517 2.44214H13.7711C15.8859 2.44214 17.5362 2.85602 18.7221 3.68378C19.9278 4.49184 20.5306 5.63494 20.5306 7.11309C20.5306 7.44813 20.4812 7.86202 20.3823 8.35473C20.1649 9.34016 19.7301 10.1679 19.0779 10.838C18.4454 11.5081 17.7734 12.0008 17.0619 12.3162C17.6746 12.6315 18.1687 13.0947 18.5442 13.7056C18.9198 14.3166 19.1075 15.0163 19.1075 15.8046C19.1075 16.0214 19.068 16.3663 18.9889 16.8393C18.5541 18.889 17.635 20.4558 16.2318 21.5398C14.8482 22.6041 12.9212 23.1362 10.4506 23.1362H0.637411ZM11.7551 10.6311C12.5852 10.6311 13.267 10.365 13.8007 9.83288C14.3343 9.30075 14.6012 8.66022 14.6012 7.91129C14.6012 7.43828 14.4529 7.07367 14.1565 6.81746C13.86 6.56124 13.4054 6.43314 12.7927 6.43314H8.99788L8.07882 10.6311H11.7551ZM10.2431 19.1452C10.9941 19.1452 11.6365 18.9186 12.1701 18.4653C12.7235 18.012 13.0595 17.47 13.1781 16.8393C13.2374 16.6028 13.2671 16.386 13.2671 16.1889C13.2671 15.6765 13.0991 15.2725 12.7631 14.9768C12.4271 14.6615 11.9231 14.5038 11.2511 14.5038H7.27835L6.27035 19.1452H10.2431Z" fill="white"/>
<path d="M21.6277 23.1362C21.4103 23.1362 21.2423 23.0672 21.1237 22.9293C21.0052 22.7913 20.9656 22.6139 21.0052 22.3971L25.0964 3.21077C25.136 2.99398 25.2447 2.8166 25.4226 2.67864C25.6004 2.52097 25.7981 2.44214 26.0155 2.44214H40.0089C40.2263 2.44214 40.3844 2.52097 40.4833 2.67864C40.6019 2.8166 40.6414 2.99398 40.6019 3.21077L39.9793 6.13751C39.9397 6.3543 39.831 6.53168 39.6531 6.66964C39.4753 6.8076 39.2776 6.87658 39.0602 6.87658H29.6917L28.8616 10.6311H37.6075C37.8249 10.6311 37.983 10.7099 38.0819 10.8676C38.2004 11.0055 38.24 11.1829 38.2004 11.3997L37.6371 14.0899C37.5976 14.3067 37.4889 14.494 37.311 14.6516C37.1331 14.7896 36.9355 14.8586 36.7181 14.8586H27.9722L27.1717 18.7018H36.7774C36.9948 18.7018 37.1529 18.7806 37.2517 18.9383C37.3703 19.0762 37.4099 19.2536 37.3703 19.4704L36.7477 22.3971C36.7082 22.6139 36.5995 22.7913 36.4216 22.9293C36.2437 23.0672 36.056 23.1362 35.8583 23.1362H21.6277Z" fill="white"/>
<path d="M45.1564 23.1362C44.939 23.1362 44.771 23.0672 44.6524 22.9293C44.5338 22.7913 44.4943 22.6139 44.5338 22.3971L47.7653 7.2609H42.5474C42.33 7.2609 42.162 7.19192 42.0434 7.05396C41.9249 6.916 41.8853 6.73862 41.9249 6.52183L42.6364 3.21077C42.6759 2.99398 42.7846 2.8166 42.9625 2.67864C43.1404 2.52097 43.338 2.44214 43.5554 2.44214H59.6538C59.8712 2.44214 60.0392 2.52097 60.1578 2.67864C60.2764 2.8166 60.3159 2.99398 60.2764 3.21077L59.5352 6.52183C59.4957 6.73862 59.387 6.916 59.2091 7.05396C59.051 7.19192 58.8632 7.2609 58.6458 7.2609H53.4279L50.1667 22.3971C50.1272 22.6139 50.0185 22.7913 49.8406 22.9293C49.6825 23.0672 49.4947 23.1362 49.2773 23.1362H45.1564Z" fill="white"/>
<path d="M67.5075 23.4318C65.0369 23.4318 63.0604 22.8899 61.5781 21.8059C60.1155 20.7022 59.3842 19.1157 59.3842 17.0462C59.3842 16.5929 59.4336 16.051 59.5324 15.4203C59.7696 14.0013 60.1451 12.2472 60.659 10.1581C61.3112 7.53682 62.507 5.54625 64.2463 4.18635C66.0054 2.82646 68.2981 2.14651 71.1244 2.14651C72.6661 2.14651 74.0693 2.38301 75.3343 2.85602C76.619 3.32903 77.627 4.01883 78.3583 4.92543C79.1093 5.81232 79.4849 6.87658 79.4849 8.11823C79.4849 8.55182 79.4453 8.95585 79.3663 9.33031C79.3268 9.50769 79.2378 9.6555 79.0995 9.77375C78.9809 9.89201 78.8326 9.95113 78.6548 9.95113H74.3856C74.1089 9.95113 73.9013 9.90186 73.763 9.80332C73.6444 9.68506 73.5752 9.47812 73.5555 9.18249C73.5752 8.23648 73.3282 7.56639 72.8143 7.17221C72.3202 6.77804 71.6086 6.58095 70.6797 6.58095C68.4068 6.58095 66.9738 7.8226 66.3809 10.3059C65.9658 11.9417 65.6101 13.5972 65.3136 15.2725C65.2345 15.6666 65.195 16.0608 65.195 16.455C65.195 17.3419 65.4223 17.9923 65.8769 18.4061C66.3315 18.8003 67.0134 18.9974 67.9225 18.9974C68.8515 18.9974 69.6519 18.8003 70.3239 18.4061C71.0157 18.012 71.579 17.3419 72.0138 16.3959C72.1522 16.1002 72.3004 15.9031 72.4585 15.8046C72.6166 15.6863 72.8341 15.6272 73.1108 15.6272H77.3799C77.5578 15.6272 77.6962 15.6863 77.795 15.8046C77.8938 15.9229 77.9235 16.0707 77.8839 16.248C77.3108 18.5145 76.1249 20.2785 74.3263 21.5398C72.5277 22.8012 70.2548 23.4318 67.5075 23.4318Z" fill="white"/>
<path d="M105.357 23.1362C105.139 23.1362 104.971 23.0672 104.853 22.9293C104.754 22.7716 104.724 22.5942 104.764 22.3971L108.885 3.18121C108.924 2.96442 109.023 2.78704 109.181 2.64908C109.359 2.51112 109.557 2.44214 109.774 2.44214H113.984C114.182 2.44214 114.34 2.51112 114.458 2.64908C114.597 2.78704 114.646 2.96442 114.607 3.18121L110.486 22.3971C110.446 22.6139 110.337 22.7913 110.16 22.9293C109.982 23.0672 109.794 23.1362 109.596 23.1362H105.357Z" fill="white"/>
<path d="M115.143 23.1362C114.926 23.1362 114.758 23.0672 114.639 22.9293C114.521 22.7913 114.481 22.6139 114.521 22.3971L118.612 3.21077C118.652 2.99398 118.75 2.8166 118.908 2.67864C119.086 2.52097 119.284 2.44214 119.501 2.44214H122.822C123.316 2.44214 123.622 2.62937 123.741 3.00383L128.396 14.0899L130.738 3.21077C130.777 2.99398 130.876 2.8166 131.034 2.67864C131.212 2.52097 131.41 2.44214 131.627 2.44214H135.392C135.61 2.44214 135.768 2.52097 135.867 2.67864C135.985 2.8166 136.025 2.99398 135.985 3.21077L131.894 22.3676C131.854 22.5844 131.746 22.7716 131.568 22.9293C131.41 23.0672 131.222 23.1362 131.004 23.1362H127.684C127.407 23.1362 127.21 23.0869 127.091 22.9884C126.972 22.8702 126.864 22.7322 126.765 22.5745L122.051 11.9319L119.798 22.3971C119.758 22.6139 119.65 22.7913 119.472 22.9293C119.294 23.0672 119.106 23.1362 118.908 23.1362H115.143Z" fill="white"/>
<path d="M7.99923 0.389441L7.45237 2.57069H10.6749L11.1592 0.638836C11.2406 0.314339 10.9944 0 10.659 0H8.49944C8.26284 0 8.05661 0.160564 7.99923 0.389441Z" fill="white"/>
<path d="M13.1552 0.389441L12.6084 2.57069L15.8309 3.21337L16.352 0.61497C16.4158 0.296825 16.1718 0 15.8464 0H13.6554C13.4189 0 13.2126 0.160564 13.1552 0.389441Z" fill="white"/>
<path d="M2.94086 23.1362L2.45652 25.0681C2.37517 25.3926 2.62129 25.7069 2.95673 25.7069H5.11629C5.35289 25.7069 5.55912 25.5464 5.6165 25.3175L6.16336 23.1362H2.94086Z" fill="white"/>
<path d="M8.09687 23.1362L7.61253 25.0681C7.53117 25.3926 7.7773 25.7069 8.11274 25.7069H10.3032C10.5252 25.7069 10.7222 25.5653 10.7924 25.3554L11.9639 21.8509L8.09687 23.1362Z" fill="white"/>
<path fill-rule="evenodd" clip-rule="evenodd" d="M42.3072 39.6298C42.9568 39.8766 43.7406 40 44.6583 40C46.1329 40 47.3085 39.7275 48.185 39.1825C49.0719 38.6375 49.6287 37.8355 49.8556 36.7764C49.9071 36.5604 49.9329 36.3085 49.9329 36.0206C49.9329 35.9219 49.9277 35.8259 49.9174 35.7326H45.7513C46.0314 35.813 46.2497 35.8884 46.4062 35.9589C46.7259 36.1028 46.8857 36.3033 46.8857 36.5604C46.8857 36.6324 46.8806 36.6889 46.8702 36.7301C46.7981 37.0283 46.5867 37.2648 46.2361 37.4396C45.8958 37.6041 45.4472 37.6864 44.8903 37.6864C44.4469 37.6864 44.0963 37.6093 43.8385 37.455C43.591 37.2905 43.426 37.0848 43.3435 36.838C43.2714 36.7352 43.1992 36.6632 43.127 36.6221C43.0651 36.581 42.9671 36.5604 42.8331 36.5604H40.7604C40.6676 36.5604 40.5799 36.5913 40.4974 36.653C40.4252 36.7147 40.384 36.7918 40.3737 36.8843C40.3531 37.0488 40.3427 37.1722 40.3427 37.2545C40.3427 37.7584 40.5077 38.2211 40.8377 38.6427C41.1677 39.054 41.6575 39.383 42.3072 39.6298ZM48.97 34.1902H42.0929C41.7614 33.7884 41.5957 33.3086 41.5957 32.7506C41.5957 32.5039 41.6266 32.2519 41.6885 31.9949C41.8947 31.0283 42.4103 30.2725 43.2353 29.7275C44.0705 29.1722 45.143 28.8946 46.4526 28.8946C47.2363 28.8946 47.9375 29.0334 48.5563 29.3111C49.175 29.5887 49.6545 29.9435 49.9948 30.3753C50.3454 30.7969 50.5207 31.2237 50.5207 31.6555C50.5207 31.7069 50.5104 31.7943 50.4898 31.9177C50.4691 32.0103 50.4279 32.0926 50.366 32.1645C50.3042 32.2262 50.2268 32.2571 50.134 32.2571H47.9375C47.7107 32.2571 47.556 32.1645 47.4735 31.9794C47.4529 31.7635 47.3291 31.5836 47.1023 31.4396C46.8857 31.2854 46.597 31.2082 46.2361 31.2082C45.7926 31.2082 45.4317 31.2854 45.1533 31.4396C44.8852 31.5938 44.715 31.8201 44.6429 32.1183C44.6325 32.1594 44.6274 32.2159 44.6274 32.2879C44.6274 32.5347 44.7666 32.7352 45.045 32.8895C45.3338 33.0334 45.8442 33.1825 46.5764 33.3368C47.6327 33.5325 48.4306 33.817 48.97 34.1902ZM55.2535 35.7326C55.2484 35.762 55.2435 35.7912 55.2387 35.8201C55.1871 36.1491 55.1613 36.4319 55.1613 36.6684C55.1613 37.7481 55.5429 38.5758 56.306 39.1517C57.0794 39.7172 58.1106 40 59.3996 40C60.833 40 62.0188 39.671 62.9572 39.0129C63.8956 38.3548 64.5143 37.4345 64.8134 36.2519C64.834 36.1594 64.8186 36.0823 64.767 36.0206C64.7154 35.9589 64.6432 35.928 64.5504 35.928H62.323C62.1787 35.928 62.0652 35.9589 61.9827 36.0206C61.9003 36.072 61.8229 36.1748 61.7507 36.3291C61.5239 36.8226 61.23 37.1722 60.869 37.3779C60.5184 37.5836 60.1008 37.6864 59.6161 37.6864C59.1418 37.6864 58.786 37.5836 58.5488 37.3779C58.3117 37.162 58.1931 36.8226 58.1931 36.3599C58.1931 36.1542 58.2137 35.9486 58.255 35.7429C58.2556 35.7395 58.2562 35.7361 58.2568 35.7326H55.2535ZM58.5647 34.1902H55.5635C55.6417 33.8413 55.7294 33.4694 55.8265 33.0746C56.1668 31.7069 56.7906 30.6684 57.6981 29.9589C58.6159 29.2494 59.8121 28.8946 61.2867 28.8946C62.091 28.8946 62.8232 29.018 63.4831 29.2648C64.1534 29.5116 64.6793 29.8715 65.0609 30.3445C65.4527 30.8072 65.6487 31.3625 65.6487 32.0103C65.6487 32.2365 65.628 32.4473 65.5868 32.6427C65.5662 32.7352 65.5198 32.8123 65.4476 32.874C65.3857 32.9357 65.3084 32.9666 65.2156 32.9666H62.9882C62.8438 32.9666 62.7355 32.9409 62.6633 32.8895C62.6015 32.8278 62.5654 32.7198 62.5551 32.5656C62.5654 32.072 62.4365 31.7224 62.1684 31.5167C61.9106 31.3111 61.5393 31.2082 61.0547 31.2082C59.8688 31.2082 59.1212 31.856 58.8118 33.1517C58.7244 33.4962 58.642 33.8424 58.5647 34.1902ZM70.7466 35.7326L68.6392 39.383C68.6083 39.4447 68.5928 39.5013 68.5928 39.5527C68.5928 39.635 68.6186 39.7069 68.6701 39.7686C68.7217 39.8201 68.7939 39.8458 68.8867 39.8458H71.0058C71.2533 39.8458 71.4492 39.7326 71.5936 39.5064L72.4907 38.0103H76.5279L76.7754 39.4756C76.8166 39.7224 76.9765 39.8458 77.2549 39.8458H79.2193C79.3327 39.8458 79.4256 39.8046 79.4977 39.7224C79.5699 39.6401 79.6009 39.527 79.5906 39.383L79.0366 35.7326H70.7466ZM78.8025 34.1902L78.0902 29.4962C78.0489 29.1979 77.8736 29.0488 77.5642 29.0488H75.0584C74.7594 29.0488 74.5222 29.1979 74.3469 29.4962L71.637 34.1902H74.4671L75.8318 31.7635L76.1658 34.1902H78.8025ZM85.5612 35.7326L84.7663 39.4602C84.7457 39.5733 84.7663 39.6658 84.8282 39.7378C84.89 39.8098 84.9777 39.8458 85.0911 39.8458H87.0556C87.1587 39.8458 87.2567 39.8098 87.3495 39.7378C87.4423 39.6658 87.499 39.5733 87.5196 39.4602L88.3221 35.7326H85.5612ZM88.6542 34.1902H85.8901L86.9009 29.4499C86.9215 29.3368 86.9731 29.2442 87.0556 29.1722C87.1484 29.09 87.2515 29.0488 87.3649 29.0488H89.0974C89.3551 29.0488 89.515 29.1465 89.5769 29.3419L91.6125 34.1902H88.7794L88.6952 34L88.6542 34.1902ZM89.4626 35.7326L91.1546 39.5527C91.2061 39.635 91.2629 39.7069 91.3247 39.7686C91.3866 39.8201 91.4897 39.8458 91.6341 39.8458H93.3665C93.4799 39.8458 93.5779 39.8098 93.6604 39.7378C93.7532 39.6555 93.8099 39.5578 93.8306 39.4447L94.6233 35.7326H89.4626ZM94.9528 34.1902L95.9651 29.4499C95.9858 29.3368 95.9651 29.2442 95.9033 29.1722C95.8517 29.09 95.7692 29.0488 95.6558 29.0488H93.6913C93.5779 29.0488 93.4748 29.09 93.382 29.1722C93.2995 29.2442 93.2479 29.3368 93.2273 29.4499L92.2068 34.1902H94.9528Z" fill="#0AB359"/>
<defs>
<clipPath id="clip0_3_71">
<rect width="20.624" height="20.5655" fill="white" transform="translate(82.2145 2.57069)"/>
</clipPath>
</defs>
</svg>
