<svg width="48" height="24" viewBox="0 0 48 24" fill="none" xmlns="http://www.w3.org/2000/svg">
<g clip-path="url(#clip0_74_120)">
<path d="M3.11192 6.89861C3.09981 3.68883 5.15257 1.90872 8.92122 1.89538C11.6332 1.88568 12.1179 3.66094 12.1179 4.30605C12.1179 5.5417 10.3705 6.85253 10.3705 6.85253C10.3705 6.85253 10.4675 7.62254 11.9676 7.61648C13.4678 7.61042 14.9292 6.61971 14.9208 4.13992C14.9135 1.2915 11.9313 -0.0108455 8.98302 6.80037e-05C6.51704 0.00855628 -0.0229633 0.355363 6.06356e-05 6.85253C0.0218728 12.6233 10.9061 13.1326 10.9146 16.8275C10.9291 20.84 6.431 21.9204 4.909 21.9204C3.387 21.9204 2.76778 20.8424 2.76535 20.2507C2.75445 17.0009 5.98628 16.0963 5.98628 16.0963C5.98628 15.8537 5.79724 14.7733 4.54546 14.7782C1.32091 14.7842 0.0364142 17.5587 0.0461085 20.2677C0.0545909 22.5716 1.68202 24.0098 4.13952 24.0001C8.83882 23.9831 14.138 21.6888 14.1186 16.5934C14.1016 11.8279 3.12525 10.5837 3.11192 6.89861Z" fill="white"/>
<path d="M47.9102 19.6661C47.8727 19.5752 47.7673 19.597 47.6279 19.7122C47.0947 20.1524 45.8757 21.399 43.0231 21.4099C37.8221 21.4293 36.9194 12.8513 36.9194 12.8513C36.9194 12.8513 40.8831 9.89008 41.5023 8.69566C42.1215 7.50124 40.1512 7.24052 40.1512 7.24052C40.1512 7.24052 37.3786 10.6164 35.4131 11.6059C35.6264 10.1375 37.0805 6.79065 37.1641 4.86623C37.2478 2.94182 34.8484 3.4111 34.4655 3.59542C34.4655 4.43575 32.3461 12.0643 31.5742 16.2575C31.1198 16.9851 30.4702 17.8169 29.8886 17.8181C29.5517 17.8181 29.4281 17.1936 29.4245 16.2987C29.4245 15.057 30.1079 13.0671 30.1031 11.8581C30.1031 11.0214 29.7189 10.9717 29.3881 10.9729C29.3166 10.9729 28.9192 10.9839 28.8464 10.9839C27.9982 10.9839 28.2769 10.2563 27.5135 10.2636C25.1772 10.2721 22.201 12.8246 22.0714 16.6771C21.2825 17.1997 20.1785 17.8581 19.6151 17.8606C19.0237 17.8606 18.8771 17.3137 18.8759 16.8408C18.8759 16.0101 20.2185 11.0748 20.2185 11.0748C20.2185 11.0748 21.9284 10.6358 22.6748 10.4915C23.2395 10.3812 23.4019 10.34 23.6212 10.0671C23.8406 9.79428 24.2695 9.23042 24.6161 8.72355C24.9627 8.21668 24.6222 7.825 23.9811 7.82743C23.1402 7.82743 20.8899 8.36098 20.8899 8.36098C20.8899 8.36098 21.9708 3.69727 21.9696 3.60269C21.9684 3.50811 21.8484 3.45839 21.6654 3.4596C21.2558 3.4596 20.5251 3.6803 20.0574 3.84764C19.3412 4.1035 18.7583 4.98143 18.6408 5.39008C18.5233 5.79873 17.7138 8.99881 17.7138 8.99881C17.7138 8.99881 13.3792 10.4964 12.7867 10.7207C12.769 10.7268 12.7536 10.7382 12.7428 10.7534C12.7319 10.7687 12.7261 10.7869 12.7261 10.8056C12.7261 10.8444 13.2217 12.7458 14.2384 12.7385C14.9655 12.7385 17.1018 11.863 17.1018 11.863C17.1018 11.863 16.004 16.2284 16.0112 17.6835C16.0112 18.6172 16.4511 19.711 18.2736 19.705C19.9701 19.705 21.4546 18.8282 22.2858 18.2183C22.7403 19.3691 23.8139 19.6843 24.547 19.6819C26.1902 19.6819 27.4553 18.3699 27.6177 18.194C27.831 18.6985 28.3339 19.6674 29.4826 19.6637C30.1321 19.6637 30.8047 18.9362 31.3003 18.2304C31.2909 18.3771 31.293 18.5242 31.3064 18.6706C31.5051 20.4798 34.1892 19.4164 34.3358 19.1641C34.4267 17.8557 34.3698 15.1807 34.892 13.5291C35.5852 19.1629 38.2148 22.9523 42.9419 22.9353C45.5848 22.9256 46.9408 22.1653 47.5019 21.5384C47.7271 21.289 47.8833 20.9851 47.955 20.6567C48.0266 20.3282 48.0112 19.9868 47.9102 19.6661V19.6661ZM25.2293 17.8084C22.9596 17.8169 25.9236 11.9297 27.8601 11.9224C27.8625 12.6815 27.8201 17.7999 25.2293 17.8084Z" fill="white"/>
<path d="M43.6557 19.6128C45.7048 19.6055 47.291 18.2559 47.5819 17.8169C47.9575 17.2458 47.1456 16.3836 46.8875 16.3982C46.2404 17.0178 45.5642 17.7672 44.0459 17.7721C42.2585 17.7793 42.6632 15.8113 42.6632 15.8113C42.6632 15.8113 46.1035 16.2563 47.4861 13.7814C47.9284 12.9895 47.9466 11.8945 47.7685 11.4228C47.5903 10.9511 46.5894 10.078 44.9971 10.2102C43.0413 10.3751 40.5765 12.416 40.0349 14.8666C39.5998 16.8383 40.4226 19.6249 43.6557 19.6128ZM45.8369 11.3549C46.1592 11.344 46.1301 11.8751 46.0441 12.4305C45.9229 13.1835 44.8893 15.0982 42.9165 15.0231C43.0534 13.9087 44.5209 11.3986 45.8405 11.3549H45.8369Z" fill="white"/>
</g>
<defs>
<clipPath id="clip0_74_120">
<rect width="48" height="24" fill="white"/>
</clipPath>
</defs>
</svg>
